<svg xmlns="http://www.w3.org/2000/svg" width="180.333" height="165.397" viewBox="0 0 180.333 165.397">
  <g id="AddCloudP_icon" transform="translate(-1391 -463.922)">
    <path id="cloud" d="M133.889,47.6A60.209,60.209,0,0,0,15.036,61.055a59.57,59.57,0,0,0,6.774,27.629,41.319,41.319,0,0,0,19.568,77.738H120.4A60.209,60.209,0,0,0,133.889,47.6ZM120.4,151.369H41.377a26.274,26.274,0,0,1-6.563-51.735,7.526,7.526,0,0,0,4.169-11.771,44.675,44.675,0,0,1-8.9-26.808,45.157,45.157,0,0,1,89.863-6.021,7.526,7.526,0,0,0,6.457,6.472,45.157,45.157,0,0,1-6.006,89.863Z" transform="translate(1390.997 462.898)" fill="#3a50e4"/>
    <path id="Union_2" data-name="Union 2" d="M1724.5,50V31.5H1706a5,5,0,1,1,0-10h18.5V3a5,5,0,0,1,10,0V21.5H1753a5,5,0,0,1,0,10h-18.5V50a5,5,0,0,1-10,0Z" transform="translate(-248 533.5)" fill="#3a50e4"/>
  </g>
</svg>
