<svg xmlns="http://www.w3.org/2000/svg" width="260" height="260" viewBox="0 0 260 260">
  <g id="AWS_icon" transform="translate(-107 -181)">
    <rect id="Rectangle_523" data-name="Rectangle 523" width="260" height="260" transform="translate(107 181)" fill="#fff" opacity="0"/>
    <g id="Aws" transform="translate(108 235)">
      <path id="Path_53" data-name="Path 53" d="M83.2,55.494a25.715,25.715,0,0,0,.935,7.564,45.492,45.492,0,0,0,2.721,6.121,3.7,3.7,0,0,1,.6,1.955,3.364,3.364,0,0,1-1.615,2.55l-5.354,3.57a4.075,4.075,0,0,1-2.209.765,3.911,3.911,0,0,1-2.55-1.19,26.293,26.293,0,0,1-3.061-3.994c-.85-1.445-1.7-3.061-2.635-5.015Q60.079,79.546,45.036,79.546c-7.141,0-12.833-2.04-17-6.121s-6.289-9.517-6.289-16.316c0-7.224,2.55-13.088,7.734-17.508S41.551,32.972,50.3,32.972a67.291,67.291,0,0,1,9.009.68c3.145.425,6.374,1.1,9.774,1.87v-6.2c0-6.461-1.36-10.963-3.994-13.6-2.721-2.635-7.309-3.909-13.853-3.909a38.674,38.674,0,0,0-9.181,1.105A67.721,67.721,0,0,0,32.882,15.8a24.388,24.388,0,0,1-2.975,1.1,5.213,5.213,0,0,1-1.36.255c-1.19,0-1.785-.85-1.785-2.635V10.366a5.374,5.374,0,0,1,.6-2.975,6.364,6.364,0,0,1,2.38-1.785A48.929,48.929,0,0,1,40.446,1.782,51.526,51.526,0,0,1,53.7.167c10.116,0,17.508,2.294,22.267,6.884,4.674,4.589,7.054,11.558,7.054,20.907V55.494ZM48.691,68.413a27.545,27.545,0,0,0,8.754-1.53,18.939,18.939,0,0,0,8.074-5.441A13.49,13.49,0,0,0,68.408,56a30.509,30.509,0,0,0,.85-7.394V45.041A70.978,70.978,0,0,0,61.44,43.6a64.042,64.042,0,0,0-7.99-.508c-5.694,0-9.859,1.1-12.663,3.4s-4.164,5.524-4.164,9.774c0,3.994,1.02,6.969,3.145,9.009,2.04,2.125,5.015,3.145,8.924,3.145Zm68.246,9.179a4.747,4.747,0,0,1-3.23-.85,6.93,6.93,0,0,1-1.785-3.315L91.949,7.731a14.887,14.887,0,0,1-.765-3.4,1.865,1.865,0,0,1,2.04-2.125h8.329c1.615,0,2.721.255,3.315.85a6.961,6.961,0,0,1,1.7,3.315l14.278,56.262L134.1,6.371c.425-1.7.935-2.8,1.615-3.315a5.847,5.847,0,0,1,3.4-.85h6.8a5.12,5.12,0,0,1,3.4.85,5.729,5.729,0,0,1,1.615,3.315l13.428,56.942,14.7-56.942a7.281,7.281,0,0,1,1.7-3.315,5.545,5.545,0,0,1,3.315-.85h7.9a1.889,1.889,0,0,1,2.125,2.125,8.476,8.476,0,0,1-.17,1.36,12.093,12.093,0,0,1-.6,2.125l-20.482,65.7a6.516,6.516,0,0,1-1.785,3.315,5.437,5.437,0,0,1-3.23.85h-7.309a5.12,5.12,0,0,1-3.4-.85,6.026,6.026,0,0,1-1.615-3.4L142.347,18.609,129.259,73.342a6.64,6.64,0,0,1-1.615,3.4,5.263,5.263,0,0,1-3.4.85Zm109.21,2.294a56.241,56.241,0,0,1-13.088-1.53,38.631,38.631,0,0,1-9.774-3.4,6.116,6.116,0,0,1-2.635-2.38,6,6,0,0,1-.51-2.38V65.863c0-1.785.68-2.635,1.955-2.635a4.812,4.812,0,0,1,1.53.255c.51.17,1.275.51,2.125.85a46.229,46.229,0,0,0,9.349,2.975,51.038,51.038,0,0,0,10.114,1.02c5.354,0,9.519-.935,12.409-2.8a9.152,9.152,0,0,0,4.421-8.074,8.277,8.277,0,0,0-2.294-5.949c-1.53-1.615-4.421-3.061-8.584-4.421l-12.326-3.824c-6.2-1.954-10.794-4.844-13.6-8.669a20.248,20.248,0,0,1-4.249-12.324,18.915,18.915,0,0,1,2.294-9.434,21.853,21.853,0,0,1,6.121-6.969,26.975,26.975,0,0,1,8.839-4.421A37.042,37.042,0,0,1,228.951,0a42.666,42.666,0,0,1,5.694.34c1.955.255,3.741.6,5.524.935,1.7.425,3.315.85,4.844,1.36a18.548,18.548,0,0,1,3.57,1.53,7.349,7.349,0,0,1,2.549,2.125,4.58,4.58,0,0,1,.765,2.8v3.994c0,1.785-.68,2.721-1.955,2.721a8.838,8.838,0,0,1-3.23-1.02A38.881,38.881,0,0,0,230.4,11.471c-4.844,0-8.669.765-11.3,2.38a8.209,8.209,0,0,0-3.994,7.564,8.026,8.026,0,0,0,2.55,6.034c1.7,1.615,4.844,3.23,9.349,4.674l12.069,3.822c6.121,1.955,10.539,4.674,13.173,8.159A19.232,19.232,0,0,1,256.147,56a21.849,21.849,0,0,1-2.209,9.859,22.857,22.857,0,0,1-6.2,7.479A27.4,27.4,0,0,1,238.3,78.1a40.413,40.413,0,0,1-12.153,1.785Z" transform="translate(-9.474 0.006)" fill="#252f3e"/>
      <path id="Path_54" data-name="Path 54" d="M235.607,227.789c-28.516,21.062-69.945,32.242-105.568,32.242-49.924,0-94.908-18.46-128.882-49.142-2.687-2.428-.26-5.72,2.947-3.815,36.749,21.322,82.08,34.235,128.97,34.235A257.4,257.4,0,0,0,231.447,221.2c4.767-2.167,8.841,3.121,4.162,6.589Z" transform="translate(-0.002 -108.388)" fill="#f90"/>
      <path id="Path_55" data-name="Path 55" d="M462.853,208.915c-3.612-4.643-23.9-2.235-33.105-1.118-2.753.344-3.182-2.064-.688-3.869,16.166-11.35,42.736-8.083,45.831-4.3,3.1,3.869-.86,30.439-15.994,43.166-2.321,1.978-4.557.946-3.526-1.634,3.44-8.513,11.093-27.688,7.481-32.246Z" transform="translate(-217.396 -101.396)" fill="#f90"/>
    </g>
  </g>
</svg>
