<svg xmlns="http://www.w3.org/2000/svg" width="350" height="350" viewBox="0 0 350 350">
  <g id="Azure_icon" transform="translate(-62.3 -147)">
    <rect id="Rectangle_524" data-name="Rectangle 524" width="350" height="350" transform="translate(62.3 147)" fill="none"/>
    <path id="Microsoft_Azure-Logo.wine" d="M60.225,95.448q15.355-2.709,30.7-5.435l.284-.06L75.421,71.171c-8.684-10.33-15.79-18.822-15.79-18.87,0-.093,16.3-44.993,16.4-45.153.03-.053,11.126,19.1,26.9,46.438,14.765,25.59,26.938,46.689,27.051,46.887l.206.359L80,100.826l-50.183-.007ZM252.67,90.906c-7.639-.489-12.081-4.839-13.259-12.981-.314-2.165-.315-2.222-.347-16.282l-.031-13.609H245.8l.026,13.162c.024,11.864.039,13.255.152,14.089.46,3.387,1.377,5.665,2.937,7.3a8.424,8.424,0,0,0,4.734,2.481,18.014,18.014,0,0,0,4.541,0,10.034,10.034,0,0,0,5.146-2.794,13.6,13.6,0,0,0,3.468-6.647l.2-.894.022-13.274.022-13.274h6.9V89.917h-6.832v-3.31a25.121,25.121,0,0,0-.077-3.285,2.7,2.7,0,0,0-.39.6,13.89,13.89,0,0,1-5.287,5.293,14.846,14.846,0,0,1-8.689,1.7Zm77.534-.033a17.909,17.909,0,0,1-7.856-2.566c-4.891-3.025-7.785-8.012-8.633-14.875a35.973,35.973,0,0,1-.083-7.583,24.635,24.635,0,0,1,4.842-12.1,24.759,24.759,0,0,1,2.924-2.923,18.218,18.218,0,0,1,7.463-3.563,24.261,24.261,0,0,1,6.052-.353,15.914,15.914,0,0,1,10.728,5.511c2.674,3.181,4.144,7.626,4.332,13.1.029.858.036,2.361.016,3.341l-.038,1.783-14.8.019-14.8.019v.661a16.354,16.354,0,0,0,1.333,6.247,13.724,13.724,0,0,0,3.009,4.4,13.224,13.224,0,0,0,7.5,3.171,29.23,29.23,0,0,0,4.9-.188,20.77,20.77,0,0,0,9.24-3.812q.322-.245.654-.478c.076-.048.095.554.093,3.082l0,3.141-.7.433a24.492,24.492,0,0,1-9.915,3.437,56.827,56.827,0,0,1-6.269.093Zm12.878-26.493c0-3.367-1.419-7.108-3.427-9.034a9.413,9.413,0,0,0-5.225-2.533,15.461,15.461,0,0,0-4.055.114,10.606,10.606,0,0,0-5.534,2.941,15.083,15.083,0,0,0-3.662,5.862,18.755,18.755,0,0,0-.708,2.882l-.049.353h22.658ZM142.372,89.824c.017-.052,5.042-13.251,11.165-29.333l11.134-29.24h7.155l.3.761c.907,2.326,22.29,57.841,22.29,57.87s-1.713.034-3.806.034H186.8l-3.082-8.2L180.637,73.5H155.821l-.108.278c-.06.153-1.376,3.845-2.926,8.2l-2.818,7.926h-3.814a20.57,20.57,0,0,1-3.782-.092Zm36-22.581c0-.013-2.074-5.635-4.609-12.494-4.742-12.831-5.007-13.6-5.382-15.664-.175-.966-.265-.992-.369-.111a20.294,20.294,0,0,1-.647,2.822c-.124.388-2.259,6.249-4.745,13.025S158.1,67.169,158.1,67.2s4.561.063,10.136.063,10.136-.011,10.136-.023Zm18.342,21.6V87.78l12.363-17,12.363-17-11.193-.038-11.193-.037-.02-2.84-.019-2.841h32.379v1.919L219.03,67.04c-6.8,9.4-12.365,17.1-12.365,17.123s5.5.035,12.216.035H231.1v5.718H196.715Zm90.721,1.019c-.027-.027-.05-9.451-.05-20.941V48.034h6.758v4.307c0,2.369.028,4.307.064,4.307a3.857,3.857,0,0,0,.365-.862,14.889,14.889,0,0,1,3.775-5.814,9.784,9.784,0,0,1,5.338-2.654,11.11,11.11,0,0,1,2.228-.081,9.87,9.87,0,0,1,3.1.433l.278.091v7.014l-.8-.4a8.526,8.526,0,0,0-4.475-.9,8.107,8.107,0,0,0-2.674.523,8.458,8.458,0,0,0-4.257,3.478,20.194,20.194,0,0,0-2.826,8.126c-.056.5-.088,4.544-.1,12.523l-.02,11.789h-3.328C288.983,89.917,287.463,89.894,287.436,89.867ZM0,89.72c0-.026,7.44-12.942,16.534-28.7L33.068,32.365,52.337,16.2C62.934,7.3,71.633.014,71.669,0a3.4,3.4,0,0,1-.31.779c-.205.442-9.62,20.637-20.923,44.877L29.885,89.73l-14.943.019C6.725,89.76,0,89.747,0,89.72Z" transform="translate(62.3 271)" fill="#fff"/>
  </g>
</svg>
