<svg xmlns="http://www.w3.org/2000/svg" width="24" height="26.962" viewBox="0 0 24 26.962">
  <path id="Icon_awesome-bell" data-name="Icon awesome-bell" d="M10,23.327a2.961,2.961,0,0,0,2.96-2.962H7.04A2.961,2.961,0,0,0,10,23.327m8.88-4.442A1.482,1.482,0,0,0,20.366,17.4a1.445,1.445,0,0,0-.4-1c-.894-.961-2.567-2.406-2.567-7.14a7.308,7.308,0,0,0-5.92-7.18V1.115a1.48,1.48,0,1,0-2.96,0V2.08A7.308,7.308,0,0,0,2.6,9.26C2.6,13.994.927,15.439.033,16.4a1.446,1.446,0,0,0-.4,1A1.482,1.482,0,0,0,1.12,18.885H18.88M10,24.962a4.6,4.6,0,0,1-4.592-4.442H1.12a3.078,3.078,0,0,1-2.261-.968A3.132,3.132,0,0,1-2,17.415a3.087,3.087,0,0,1,.836-2.129l.187-.2C-.157,14.226.965,13.046.965,9.26A8.9,8.9,0,0,1,6.9.844a3.114,3.114,0,0,1,6.205,0A8.9,8.9,0,0,1,19.035,9.26c0,3.787,1.122,4.967,1.942,5.828l.187.2A3.085,3.085,0,0,1,22,17.415a3.13,3.13,0,0,1-.859,2.137,3.078,3.078,0,0,1-2.261.968H14.592A4.6,4.6,0,0,1,10,24.962Z" transform="translate(2 2)" fill="#fff"/>
</svg>
