<svg xmlns="http://www.w3.org/2000/svg" xmlns:xlink="http://www.w3.org/1999/xlink" width="358.509" height="358.451" viewBox="0 0 358.509 358.451">
  <defs>
    <linearGradient id="linear-gradient" x1="0.5" x2="0.5" y2="1" gradientUnits="objectBoundingBox">
      <stop offset="0" stop-color="#4655e8"/>
      <stop offset="1" stop-color="#6f7cfb"/>
    </linearGradient>
  </defs>
  <g id="BringYOCloud-01" transform="translate(-35.051 -33.199)" opacity="0.5">
    <path id="Path_973" data-name="Path 973" d="M388.385,367.888a20.359,20.359,0,0,0-3.726-.1q-74.674,0-149.348.038c-2.641,0-4.7-.089-5.743-3.164a8.593,8.593,0,0,0-4.677-5.15c-4.785-1.821-4.942-5.42-4.577-9.5a10.035,10.035,0,0,0,0-2.61c-.554-3.106.943-3.58,3.7-3.568q36.4.146,72.807.046c11.582,0,19.069-7.571,19.1-19.223.023-10.577-.4-21.17.1-31.732.635-13.226-9.192-21.94-20.693-20.7-2.5.266-3.418-.412-3.426-3.156s1.155-2.995,3.318-2.9a22.1,22.1,0,0,0,7.34-.577c.192-.058.385-.119.574-.189a10.527,10.527,0,0,0,3.518-2.105,10.393,10.393,0,0,0,4.134-2.375c.1-.1.2-.189.293-.289a19.452,19.452,0,0,0,4.057-7.244c1.366-3.714.739-7.641.77-11.482.069-5.535,0-5.554,5.389-5.554,22.325,0,40.37-9.149,55.043-25.655,10.551-11.879,15.9-25.928,17.033-41.552a66.861,66.861,0,0,0-11.1-42.872c-16.478-24.6-39.72-35.6-69.285-32.6-3.957.385-5.889-.135-7.825-4.065-27.187-55.2-97.08-73.431-147.923-38.788a101.283,101.283,0,0,0-34.743,40.62c-.874,1.817-1.894,3.684-3.984,2.871-3.079-1.2-6.112-.3-9.13-.631a57.589,57.589,0,0,0-21.7,1.955c-33.049,9.123-55.6,41.405-52.3,74.681,3.584,36.182,31.136,63.442,66.564,65.94,3.549.25,8.418-1.54,10.289.878,1.763,2.275.52,6.905.554,10.5.073,7.34,3.145,12.9,9.673,16.428,3.6,2.421,7.679,2.31,11.728,2.105,1.894-.085,2.417.466,2.625,2.448.362,3.5-1.316,3.664-4.084,3.645-12.679-.1-19.9,7.186-19.916,19.839v32.487c.019,11.821,7.517,19.292,19.388,19.3q33.041.027,66.086,0c3.214,0,7.5-1.089,9.369.535,2.182,1.894.423,6.3.77,9.623a3.421,3.421,0,0,1-2.31,4,13.334,13.334,0,0,0-7.1,6.875c-1.116,2.594-2.721,2.91-5.142,2.906q-75.605-.081-151.211-.035c-4.746,0-7.444,2.175-7.487,5.912s2.667,5.989,7.36,6.047h2.614q74.289,0,148.6-.027c2.34,0,3.868.227,5.212,2.787a16.519,16.519,0,0,0,15.193,9.138c6.894.077,12.36-3,15.6-9.069,1.313-2.46,2.768-2.868,5.173-2.868q74.862.073,149.732.035a20.716,20.716,0,0,0,3.726-.089c3.206-.589,5.158-2.567,5.169-5.87S391.6,368.489,388.385,367.888Zm-275.6-153.32v3.36c0,6.544,0,6.578-6.717,6.436-14.15-.3-27.3-4.188-37.818-13.718-29.535-26.775-26.328-66.452-3.018-88.777,15.273-14.627,33.557-19.727,54.316-15.528,8.083,1.636,8.126,1.567,11.571-5.87,7.313-15.8,17.571-29.277,32.044-39.261a89.543,89.543,0,0,1,134.336,40.2c2.31,5.67,4.234,6.7,10.008,5.3,39.227-9.561,76.414,21.1,74.012,61.394-2.025,33.673-30.47,57.868-63.407,56.329-1.905-.089-2.259-.8-2.209-2.452.092-3.106-.05-6.224.038-9.33.273-9.592-8.614-18.437-18.13-18.137h-1.867c-2.013,0-4.061.693-4.061-2.906,0-3.4,1.74-3.172,3.915-3.056a18.78,18.78,0,0,0,11.44-2.641,17.635,17.635,0,0,0,8.668-15.57q.081-17.545,0-35.1c-.065-10.647-7.764-18.357-18.422-18.376q-41.625-.073-83.25,0h-81.76c-12.367,0-19.658,7.34-19.673,19.765v31.363c0,13.472,6.967,20.6,20.366,20.485,3.079-.027,3.634.974,3.611,3.757-.023,3.4-2.329,2.236-3.868,2.252C119.886,194.595,112.784,201.631,112.784,214.568Zm101.487-37.976H132.935c-6.347,0-8.183-1.848-8.187-8.218v-32.09c0-5.389,2.067-7.479,7.417-7.483h164.54c5.119,0,7.24,2.136,7.256,7.267.035,10.82,0,21.64,0,32.464,0,6.128-1.905,8.052-7.983,8.052Q255.126,176.6,214.271,176.592Zm65.917,15.035c.058,3.164-1.586,2.914-3.684,2.91q-31.178-.054-62.356-.019-30.982,0-61.972.019c-2.105,0-3.726.242-3.684-2.914.038-2.86,1.132-3.118,3.5-3.114q62.356.085,124.671,0C279.088,188.5,280.138,188.8,280.188,191.627ZM132.357,254.253c-5.581,0-7.587-2.044-7.6-7.7q-.031-16.051,0-32.094c0-6.328,1.64-7.991,7.879-7.991h163.07c6.3,0,8.245,1.925,8.253,8.164v32.094c0,5.389-2.075,7.51-7.4,7.51Q214.456,254.272,132.357,254.253Zm147.866,14.912c-.019,2.9-1.182,3.079-3.518,3.079q-62.291-.085-124.586,0c-2.206,0-3.626.05-3.607-2.987,0-2.9,1.182-3.079,3.518-3.079,20.762.073,41.529.042,62.295.042s41.529.019,62.291-.031C278.81,266.17,280.223,266.124,280.223,269.165Zm-147.257,62.78c-6.37,0-8.218-1.84-8.222-8.187V291.663c0-5.412,2.059-7.517,7.379-7.517q82.284-.023,164.556,0c5.142,0,7.279,2.125,7.313,7.233q.05,16.609,0,33.214c0,5.293-2.136,7.344-7.564,7.348q-41.236.023-82.464,0Q173.451,331.948,132.966,331.945ZM214.4,379.713a5.951,5.951,0,1,1,5.9-5.9,5.951,5.951,0,0,1-5.9,5.9Z" transform="translate(0 0)" fill="url(#linear-gradient)"/>
    <path id="Path_974" data-name="Path 974" d="M345.848,498.841c-5.589-.035-11.182,0-16.771,0-5.962,0-11.932-.065-17.891.019-6.994.1-12,5-12.167,11.932q-.139,5.966,0,11.932c.15,6.721,5.1,11.882,11.771,11.952q18.072.189,36.151,0c6.69-.069,11.636-5.189,11.8-11.932.1-3.726.05-7.456,0-11.182C358.681,503.768,353.731,498.888,345.848,498.841Zm-7.829,23.888H328.7c-4.969,0-9.946-.131-14.908.058-2.375.092-2.86-.712-2.875-2.945-.058-9.023-.139-9.023,9.019-9.023,7.952,0,15.909.1,23.865-.062,2.5-.05,3.079.77,3.06,3.133C346.845,522.729,346.934,522.729,338.019,522.729Z" transform="translate(-162.32 -286.394)" fill="url(#linear-gradient)"/>
    <path id="Path_975" data-name="Path 975" d="M497.166,532.322c.112-1.855.023-3.718,0-5.577,0-2.109.1-4.234,0-6.32-.2-3.537-2.617-5.932-5.862-5.985a5.821,5.821,0,0,0-6.012,5.8c-.166,4.084-.166,8.183,0,12.267a5.849,5.849,0,0,0,6.016,5.8C494.549,538.257,496.958,535.855,497.166,532.322Z" transform="translate(-276.859 -296.002)" fill="url(#linear-gradient)"/>
    <path id="Path_976" data-name="Path 976" d="M547.421,532.359c.2,3.53,2.625,5.932,5.866,5.982a5.844,5.844,0,0,0,6.012-5.812c.162-4.084.165-8.187,0-12.267a5.818,5.818,0,0,0-6.028-5.774,5.926,5.926,0,0,0-5.851,5.97c-.112,1.979,0,3.969,0,5.951S547.309,530.384,547.421,532.359Z" transform="translate(-315.12 -296.031)" fill="url(#linear-gradient)"/>
    <path id="Path_977" data-name="Path 977" d="M615.464,538.306c3.245-.035,5.681-2.429,5.893-5.955.119-1.979.023-3.965.023-5.951h0c0-2.106.127-4.234-.031-6.317a5.926,5.926,0,0,0-11.848.123c-.169,4.084-.162,8.183,0,12.267A5.812,5.812,0,0,0,615.464,538.306Z" transform="translate(-353.259 -295.997)" fill="url(#linear-gradient)"/>
    <path id="Path_978" data-name="Path 978" d="M677.58,538.312a5.893,5.893,0,0,0,5.816-5.635c.162-2.094.031-4.211.031-6.32h0c0-1.982.1-3.972,0-5.947-.208-3.534-2.633-5.928-5.878-5.97a5.841,5.841,0,0,0-6,5.816c-.158,4.084-.162,8.187,0,12.267A5.844,5.844,0,0,0,677.58,538.312Z" transform="translate(-391.426 -296.002)" fill="url(#linear-gradient)"/>
    <path id="Path_979" data-name="Path 979" d="M346.927,297.042q-18.091-.173-36.217,0a11.711,11.711,0,0,0-11.644,11.7c-.115,3.849-.065,7.718-.019,11.574.085,7.41,5.035,12.429,12.4,12.514,5.851.065,11.7,0,17.548,0s11.7.065,17.548,0c7.183-.1,12.109-5.089,12.229-12.317.062-3.849.085-7.718,0-11.574A11.806,11.806,0,0,0,346.927,297.042Zm-9,23.865h-8.953c-5.223,0-10.447-.062-15.67.031-1.759.035-2.271-.512-2.363-2.31-.5-9.681-.558-9.677,9.138-9.677,7.96,0,15.92.081,23.865-.054,2.267-.038,2.925.55,2.941,2.887.069,9.119.162,9.119-8.957,9.119Z" transform="translate(-162.348 -162.232)" fill="url(#linear-gradient)"/>
    <path id="Path_980" data-name="Path 980" d="M491.223,312.665a5.861,5.861,0,0,0-5.835,5.593c-.089,1.155-.092,2.283-.073,3.43,0,.962.042,1.925.042,2.883,0,.643,0,1.289-.027,1.925-.027,1.463-.054,2.925.054,4.376a5.868,5.868,0,0,0,5.8,5.635,5.754,5.754,0,0,0,5.993-5.408,129.47,129.47,0,0,0,0-12.995,5.774,5.774,0,0,0-5.955-5.439Z" transform="translate(-276.944 -171.893)" fill="url(#linear-gradient)"/>
    <path id="Path_981" data-name="Path 981" d="M553.31,312.665a5.88,5.88,0,0,0-5.839,5.593c-.162,2.094-.031,4.207-.031,6.313s-.131,4.234.031,6.309a5.865,5.865,0,0,0,5.8,5.635,5.757,5.757,0,0,0,5.993-5.408,128.348,128.348,0,0,0,0-12.995,5.774,5.774,0,0,0-5.951-5.447Z" transform="translate(-315.131 -171.893)" fill="url(#linear-gradient)"/>
    <path id="Path_982" data-name="Path 982" d="M621.339,318.631c-.212-3.53-2.633-5.92-5.87-5.962a5.828,5.828,0,0,0-5.985,5.816c-.162,4.08-.166,8.176,0,12.256a5.829,5.829,0,0,0,6.024,5.774,5.893,5.893,0,0,0,5.8-5.635c.162-2.09.031-4.207.031-6.309h0C621.362,322.592,621.459,320.606,621.339,318.631Z" transform="translate(-353.249 -171.897)" fill="url(#linear-gradient)"/>
    <path id="Path_983" data-name="Path 983" d="M683.422,324.855c0-2.225.15-4.469-.035-6.678a5.859,5.859,0,0,0-5.916-5.508,5.774,5.774,0,0,0-5.878,5.535c-.2,4.2-.181,8.422,0,12.621a5.812,5.812,0,0,0,5.731,5.693,5.91,5.91,0,0,0,6.1-5.72c.146-1.971.027-3.961.027-5.943Z" transform="translate(-391.44 -171.896)" fill="url(#linear-gradient)"/>
    <path id="Path_984" data-name="Path 984" d="M346.89,700.657q-17.9-.154-35.8,0c-6.929.062-11.825,5.146-11.959,12.148-.069,3.73-.019,7.46,0,11.19,0,7.221,5.05,12.36,12.317,12.456,5.72.073,11.44,0,17.16,0,6.093,0,12.186.081,18.276-.023s10.081-3.714,11.347-9.588c1.032-4.781.616-9.588.566-14.377A11.743,11.743,0,0,0,346.89,700.657Zm-8.969,23.865H329c-5.208,0-10.42-.062-15.628.031-1.724.031-2.279-.454-2.375-2.267-.5-9.727-.558-9.727,9.03-9.727,8.06,0,16.124.065,24.18-.042,2.055-.027,2.718.485,2.76,2.652.177,9.353.258,9.353-9.026,9.353Z" transform="translate(-162.411 -410.495)" fill="url(#linear-gradient)"/>
    <path id="Path_985" data-name="Path 985" d="M497.2,734.415c.177-4.1.173-8.214,0-12.317a5.839,5.839,0,0,0-6.036-5.82c-3.249.069-5.624,2.5-5.812,6.07-.085,1.574-.038,3.152-.023,4.731v2.667c-.023,1.54-.054,3.037.046,4.55a5.907,5.907,0,0,0,6.047,5.824A5.824,5.824,0,0,0,497.2,734.415Z" transform="translate(-276.942 -420.15)" fill="url(#linear-gradient)"/>
    <path id="Path_986" data-name="Path 986" d="M553.222,740.116a5.919,5.919,0,0,0,6.009-5.87c.131-1.982.023-3.98.023-5.97h0v-5.6a6.265,6.265,0,0,0-5.881-6.4,5.774,5.774,0,0,0-5.962,5.493c-.208,4.234-.192,8.468,0,12.7A5.8,5.8,0,0,0,553.222,740.116Z" transform="translate(-315.051 -420.147)" fill="url(#linear-gradient)"/>
    <path id="Path_987" data-name="Path 987" d="M615.488,740.115c3.253-.05,5.654-2.46,5.862-6.028.073-1.282.054-2.567.035-3.849,0-.585-.019-1.155-.019-1.751,0-.72,0-1.44.019-2.159s.023-1.405,0-2.109v-.928c0-.385-.023-.77-.05-1.155a5.926,5.926,0,1,0-11.852.162c-.131,3.976-.146,7.968,0,11.932A5.859,5.859,0,0,0,615.488,740.115Z" transform="translate(-353.26 -420.145)" fill="url(#linear-gradient)"/>
    <path id="Path_988" data-name="Path 988" d="M677.588,740.119a5.879,5.879,0,0,0,5.774-5.7c.15-1.978.027-3.98.031-5.974,0-2.113.115-4.234-.023-6.343a5.908,5.908,0,0,0-6.051-5.824,5.8,5.8,0,0,0-5.774,5.7c-.173,4.1-.169,8.218,0,12.317A5.854,5.854,0,0,0,677.588,740.119Z" transform="translate(-391.418 -420.15)" fill="url(#linear-gradient)"/>
  </g>
</svg>
