<svg xmlns="http://www.w3.org/2000/svg" width="29.768" height="24.8" viewBox="0 0 29.768 24.8">
  <path id="cloud-upload-alt" d="M22.509,8.435a1.82,1.82,0,0,1-1.242-.951,9.917,9.917,0,0,0-18.581,2.4,10.042,10.042,0,0,0-.1,3.468A1.951,1.951,0,0,1,2.1,15.078,6.8,6.8,0,0,0,6.822,26.8H20.138a9.554,9.554,0,0,0,9.624-8.944,9.3,9.3,0,0,0-7.252-9.423ZM20.138,25.561H6.822a5.4,5.4,0,0,1-5.581-5.58,5.5,5.5,0,0,1,1.723-4.006,3.166,3.166,0,0,0,.85-2.8A8.81,8.81,0,0,1,3.9,10.136,8.652,8.652,0,0,1,10.736,3.4a9.09,9.09,0,0,1,1.656-.153,8.635,8.635,0,0,1,7.768,4.8,3.058,3.058,0,0,0,2.08,1.607,8.055,8.055,0,0,1,6.282,8.165,8.3,8.3,0,0,1-8.383,7.749Zm-1.2-10.975a.62.62,0,0,1-.878.877l-3.176-3.176v8.939a.62.62,0,0,1-1.24,0V12.286l-3.176,3.176a.62.62,0,1,1-.877-.877l3.358-3.358a1.83,1.83,0,0,1,1.077-.5.61.61,0,0,1,.476,0,1.816,1.816,0,0,1,1.078.5l3.358,3.358Z" transform="translate(0 -2)" fill="#fff"/>
</svg>
