<svg xmlns="http://www.w3.org/2000/svg" width="24.539" height="24.538" viewBox="0 0 24.539 24.538">
  <g id="cluster" transform="translate(-25.74 -21.791)">
    <path id="Union_3" data-name="Union 3" d="M2.587,24.036A2.76,2.76,0,0,1,0,21.165a2.61,2.61,0,0,1,1.4-2.216,2.591,2.591,0,0,1,2.7.035.236.236,0,0,0,.349-.049c.853-.862,1.713-1.717,2.57-2.575a.542.542,0,0,1,.554-.216.45.45,0,0,1,.273.684,1.349,1.349,0,0,1-.2.231Q6.37,18.339,5.089,19.613a.212.212,0,0,0-.042.313,2.59,2.59,0,0,1,.01,2.779A2.6,2.6,0,0,1,2.7,24.038ZM.94,21.311A1.8,1.8,0,0,0,2.732,23.1a1.783,1.783,0,0,0-.008-3.566h0A1.8,1.8,0,0,0,.94,21.311ZM19.95,23.989a3.493,3.493,0,0,1-2.819-2.92,3.349,3.349,0,0,1,.548-2.407c.1-.157.087-.235-.041-.362q-1.693-1.676-3.369-3.369a.209.209,0,0,0-.326-.035,3.456,3.456,0,0,1-5.323-2.17,3.309,3.309,0,0,1,.5-2.6c.1-.151.118-.236-.029-.38Q7.717,8.4,6.369,7.031c-.117-.118-.184-.126-.322-.029A3.843,3.843,0,1,1,3.058.088c.078-.016.173,0,.227-.088h.986c.109.088.247.059.37.087.316.071.482.272.437.557a.471.471,0,0,1-.6.367,2.831,2.831,0,0,0-3,1.174A2.9,2.9,0,1,0,6.686,3.223a1.42,1.42,0,0,1-.026-.185A.463.463,0,0,1,7.034,2.5a.458.458,0,0,1,.529.357,3.687,3.687,0,0,1,.112,1.393,3.812,3.812,0,0,1-.715,1.857c-.066.089-.052.139.023.213Q8.4,7.737,9.819,9.16c.073.073.124.09.214.025A3.233,3.233,0,0,1,11.4,8.61c.116-.02.152-.06.15-.177-.008-.32-.008-.642,0-.962,0-.117-.046-.156-.144-.2a1.582,1.582,0,0,1-.973-1.632,1.591,1.591,0,0,1,3.019-.524,1.582,1.582,0,0,1-.795,2.142.239.239,0,0,0-.174.274c.01.3.006.595,0,.892,0,.105.013.159.141.183A3.393,3.393,0,0,1,14.831,10c.069.1.121.088.209.045q1.755-.857,3.514-1.707a.171.171,0,0,0,.112-.232A2.716,2.716,0,1,1,24,7.089c0,.018.026.032.04.048v.8c-.036.01-.04.039-.047.071a2.636,2.636,0,0,1-2.044,2.145A2.6,2.6,0,0,1,19.2,9.217c-.089-.1-.151-.083-.253-.033q-1.724.841-3.454,1.67a.2.2,0,0,0-.131.286,3.287,3.287,0,0,1-.462,2.795.222.222,0,0,0,.031.344q1.685,1.667,3.353,3.353c.145.147.233.143.4.036a3.455,3.455,0,0,1,5.272,2.157c.021.091-.009.2.082.275v.939a8.969,8.969,0,0,1-.372,1.093,3.472,3.472,0,0,1-3.127,1.907A3.7,3.7,0,0,1,19.95,23.989Zm-1.92-3.436a2.534,2.534,0,1,0,2.549-2.521h-.012A2.549,2.549,0,0,0,18.03,20.553ZM12.011,9.487a2.536,2.536,0,1,0,.007,0ZM21.3,5.732a1.77,1.77,0,1,0,.028,0ZM11.363,5.8a.656.656,0,0,0,1.312,0,.653.653,0,0,0-.654-.653h0A.653.653,0,0,0,11.363,5.8Zm-2.8,10.132a.463.463,0,1,1,.014-.925.464.464,0,0,1,.45.469.469.469,0,0,1-.463.457Zm-2.328-14a.487.487,0,0,1-.464-.491.483.483,0,0,1,.48-.452.5.5,0,0,1,.462.5.46.46,0,0,1-.462.444Z" transform="translate(25.99 22.041)" fill="#fff"/>
    <path id="Union_3_-_Outline" data-name="Union 3 - Outline" d="M2.7,24.288h0l-.123,0A3.014,3.014,0,0,1-.25,21.165v-.011a2.858,2.858,0,0,1,1.525-2.423,2.851,2.851,0,0,1,2.945.036l.025.014.022-.021c.624-.63,1.261-1.267,1.877-1.883l.693-.693a.865.865,0,0,1,.6-.308.738.738,0,0,1,.677.457.7.7,0,0,1-.066.629,1.568,1.568,0,0,1-.231.275l-.2.2c-.772.774-1.571,1.575-2.362,2.358l0,0,0,.005a2.85,2.85,0,0,1,.008,3.032A2.855,2.855,0,0,1,2.7,24.288ZM.25,21.171A2.517,2.517,0,0,0,2.6,23.786l.107,0h0a2.349,2.349,0,0,0,2.139-1.211A2.346,2.346,0,0,0,4.83,20.05a.455.455,0,0,1,.083-.615c.79-.782,1.588-1.582,2.36-2.356l.2-.2A1.142,1.142,0,0,0,7.63,16.7a.2.2,0,0,0,.024-.183.24.24,0,0,0-.21-.137c-.067,0-.132.042-.251.161L6.5,17.23c-.616.615-1.253,1.252-1.876,1.881a.51.51,0,0,1-.364.178.586.586,0,0,1-.287-.088,2.546,2.546,0,0,0-1.266-.364,2.407,2.407,0,0,0-1.186.33A2.373,2.373,0,0,0,.25,21.171Zm20.291,3.116h0a3.961,3.961,0,0,1-.631-.051A3.748,3.748,0,0,1,16.883,21.1a3.607,3.607,0,0,1,.588-2.581l.014-.021-.023-.023c-1.122-1.111-2.256-2.245-3.371-3.371l-.005-.005h0a3.665,3.665,0,0,1-2.067.644,3.738,3.738,0,0,1-2.3-.8,3.7,3.7,0,0,1-1.339-2.166,3.554,3.554,0,0,1,.538-2.785c.012-.018.02-.031.026-.041L8.917,9.93C7.911,8.944,6.932,7.957,6.191,7.206h0a4.034,4.034,0,0,1-2.33.745A4.133,4.133,0,0,1,1.2,6.977a4.063,4.063,0,0,1-1.409-2.6A4.073,4.073,0,0,1,3.006-.157c.03-.006.057-.009.08-.012H3.1l.051-.08H4.36l.069.056a.337.337,0,0,0,.107.017,1.057,1.057,0,0,1,.16.02.728.728,0,0,1,.629.84.7.7,0,0,1-.721.59.965.965,0,0,1-.174-.016,3.474,3.474,0,0,0-.624-.06A2.541,2.541,0,0,0,1.674,2.333,2.581,2.581,0,0,0,1.4,4.882,2.6,2.6,0,0,0,3.442,6.473a2.92,2.92,0,0,0,.4.029,2.65,2.65,0,0,0,2.069-.975,2.68,2.68,0,0,0,.526-2.252,1.671,1.671,0,0,1-.031-.218A.71.71,0,0,1,7.8,2.794a3.955,3.955,0,0,1,.118,1.487,4.088,4.088,0,0,1-.716,1.912c.929.925,1.852,1.847,2.743,2.744A3.491,3.491,0,0,1,11.3,8.375c-.007-.307-.006-.6,0-.876a1.829,1.829,0,0,1-1.114-1.888,1.854,1.854,0,0,1,1.519-1.624,1.953,1.953,0,0,1,.3-.024A1.865,1.865,0,0,1,13.677,5a1.806,1.806,0,0,1,.076,1.426,1.838,1.838,0,0,1-1,1.059l-.023.011c0,.006,0,.015,0,.025.01.285.006.572,0,.85a3.632,3.632,0,0,1,2.25,1.412c1.043-.509,2.247-1.1,3.427-1.665a3.016,3.016,0,0,1,.448-2.286A2.878,2.878,0,0,1,20.739,4.6a3.17,3.17,0,0,1,.579-.054,2.975,2.975,0,0,1,2.914,2.437l.057.065V8.126l-.073.02a2.885,2.885,0,0,1-2.209,2.248,3.222,3.222,0,0,1-.762.1,2.856,2.856,0,0,1-2.2-1.074c-1.013.494-2.212,1.077-3.437,1.662a3.536,3.536,0,0,1-.5,3l-.011.017.01.01c1.226,1.213,2.324,2.311,3.355,3.355a.462.462,0,0,0,.034.032.584.584,0,0,0,.051-.03A3.7,3.7,0,0,1,24.2,19.767a.745.745,0,0,1,.016.126c0,.008,0,.018,0,.027l.071.056v1.1l-.014.04c-.043.122-.078.245-.116.376a4.289,4.289,0,0,1-.268.745A3.715,3.715,0,0,1,20.541,24.287Zm-6.444-9.7a.5.5,0,0,1,.35.171c1.114,1.125,2.246,2.258,3.367,3.368a.471.471,0,0,1,.072.678,3.081,3.081,0,0,0-.508,2.234,3.237,3.237,0,0,0,2.612,2.708,3.46,3.46,0,0,0,.551.045v0a3.218,3.218,0,0,0,2.9-1.769,3.852,3.852,0,0,0,.234-.661c.034-.118.07-.24.111-.362V20.19a.537.537,0,0,1-.072-.266c0-.016,0-.037,0-.044a3.2,3.2,0,0,0-4.893-2,.612.612,0,0,1-.332.118.543.543,0,0,1-.381-.188c-1.03-1.043-2.126-2.139-3.35-3.351a.464.464,0,0,1-.063-.66,3.056,3.056,0,0,0,.429-2.591.449.449,0,0,1,.265-.577c1.231-.588,2.436-1.174,3.453-1.669a.524.524,0,0,1,.236-.066.411.411,0,0,1,.316.162,2.392,2.392,0,0,0,1.854.936,2.722,2.722,0,0,0,.643-.081,2.4,2.4,0,0,0,1.86-1.957V7.946a.4.4,0,0,1,.04-.108v-.61a.278.278,0,0,1-.036-.093,2.485,2.485,0,0,0-2.435-2.093,2.669,2.669,0,0,0-.488.046,2.381,2.381,0,0,0-1.552,1.027,2.521,2.521,0,0,0-.368,1.935.414.414,0,0,1-.248.508c-1.211.583-2.448,1.186-3.513,1.706a.468.468,0,0,1-.207.056.381.381,0,0,1-.314-.178,3.158,3.158,0,0,0-2.046-1.288.388.388,0,0,1-.346-.433c0-.289.009-.589,0-.879a.481.481,0,0,1,.325-.512,1.336,1.336,0,0,0,.723-.77,1.3,1.3,0,0,0-.053-1.03,1.35,1.35,0,0,0-1.22-.767,1.451,1.451,0,0,0-.226.018,1.369,1.369,0,0,0-1.1,1.19,1.333,1.333,0,0,0,.825,1.373.431.431,0,0,1,.294.435c-.008.3-.008.613,0,.949a.39.39,0,0,1-.356.429,3,3,0,0,0-1.265.529.41.41,0,0,1-.246.089.415.415,0,0,1-.293-.139C8.721,8.41,7.766,7.455,6.805,6.5a.377.377,0,0,1-.048-.538,3.537,3.537,0,0,0,.668-1.737,3.458,3.458,0,0,0-.1-1.3.21.21,0,0,0-.242-.176c-.155.028-.178.163-.17.271a1.172,1.172,0,0,0,.022.153A3.141,3.141,0,0,1,3.846,7a3.423,3.423,0,0,1-.474-.033A3.1,3.1,0,0,1,.942,5.077,3.077,3.077,0,0,1,1.27,2.038,3.017,3.017,0,0,1,3.806.7a3.975,3.975,0,0,1,.715.068A.465.465,0,0,0,4.6.773.205.205,0,0,0,4.831.6c.01-.063.033-.212-.244-.274A.673.673,0,0,0,4.5.321.724.724,0,0,1,4.2.25H3.385a.52.52,0,0,1-.241.078l-.034,0a3.6,3.6,0,0,0,.75,7.119A3.537,3.537,0,0,0,5.9,6.8a.525.525,0,0,1,.3-.112.483.483,0,0,1,.343.17c.74.749,1.717,1.734,2.721,2.718a.485.485,0,0,1,.063.7,3.07,3.07,0,0,0-.465,2.405,3.246,3.246,0,0,0,3.152,2.572,3.166,3.166,0,0,0,1.786-.557A.529.529,0,0,1,14.1,14.584Zm6.466,8.769h-.014a2.8,2.8,0,0,1-2.769-2.8,2.791,2.791,0,0,1,2.787-2.769h.013a2.785,2.785,0,0,1-.017,5.57Zm0-5.07a2.28,2.28,0,0,0-1.622,3.889,2.263,2.263,0,0,0,1.607.681h.012a2.285,2.285,0,0,0,.015-4.57h-.011ZM2.717,23.352A2.049,2.049,0,0,1,.69,21.31a2.039,2.039,0,0,1,2.031-2.023h0a2.033,2.033,0,0,1,.01,4.066Zm0-3.816v.25A1.557,1.557,0,0,0,1.19,21.313a1.549,1.549,0,0,0,1.527,1.539H2.73a1.533,1.533,0,0,0-.006-3.066Zm5.847-3.35h0a.717.717,0,0,1-.712-.706.716.716,0,0,1,.733-.719.713.713,0,0,1-.02,1.425Zm3.452-1.38a2.785,2.785,0,0,1-.01-5.569h.008a2.785,2.785,0,0,1,.01,5.569Zm0-5.069h-.006a2.285,2.285,0,0,0,.008,4.569h.007a2.285,2.285,0,0,0-.008-4.569Zm9.3-.19a2.033,2.033,0,0,1-.019-4.065h.032a2,2,0,0,1,1.418.6,2.025,2.025,0,0,1-1.424,3.466Zm.013-3.566H21.3a1.541,1.541,0,0,0-1.52,1.541,1.558,1.558,0,0,0,1.531,1.524h.005a1.556,1.556,0,0,0,1.529-1.532,1.523,1.523,0,0,0-.456-1.081,1.5,1.5,0,0,0-1.065-.453Zm-9.307.731h0a.9.9,0,1,1,0-1.807h0a.9.9,0,0,1,.643.268.891.891,0,0,1,.261.636A.907.907,0,0,1,12.02,6.712Zm0-1.557v.25a.4.4,0,0,0-.407.4.406.406,0,0,0,.813,0,.4.4,0,0,0-.116-.282.406.406,0,0,0-.289-.12ZM6.254,2.187H6.23a.736.736,0,0,1-.51-.236.721.721,0,0,1-.2-.515.733.733,0,0,1,.74-.692.744.744,0,0,1,.7.756A.708.708,0,0,1,6.254,2.187Zm-.016-.943a.235.235,0,0,0-.214.213.218.218,0,0,0,.062.154.233.233,0,0,0,.16.077h.007a.21.21,0,0,0,.212-.2.246.246,0,0,0-.222-.241Z" transform="translate(25.99 22.041)" fill="#fff"/>
  </g>
</svg>
