<svg xmlns="http://www.w3.org/2000/svg" xmlns:xlink="http://www.w3.org/1999/xlink" width="358" height="357.667" viewBox="0 0 358 357.667">
  <defs>
    <linearGradient id="linear-gradient" x1="0.5" y1="1" x2="0.5" gradientUnits="objectBoundingBox">
      <stop offset="0" stop-color="#6f7cfb"/>
      <stop offset="1" stop-color="#3a50e4"/>
    </linearGradient>
  </defs>
  <g id="Cloud_server-01" data-name="Cloud server-01" transform="translate(-33.148 -31.83)" opacity="0.5">
    <path id="Path_971" data-name="Path 971" d="M383.1,166.378c-9.044-18.233-23.8-30.21-43.262-36.264-1.782-.555-3.25-.627-2.952-3.48,3.973-37.859-31.667-67.557-68.237-56.979-2.375.685-3.824.746-5.644-1.48C240.778,41.15,212.185,28.947,177.26,32.4c-41.8,4.141-76.819,37.694-82.983,79.392-.581,3.92-1.935,5.671-5.9,6.837-33.43,9.824-55.6,40.3-55.224,75.4.382,33.935,23.729,64.092,56.723,73.2,2.845.788,6.78.642,8.268,2.493s.57,5.671.7,8.631c-.038,2.853-.111,5.709-.1,8.562.042,11.4,7.522,18.952,18.841,19.017q6.883.04,13.786,0c1.568,0,2.776.057,3.5,1.912a3.308,3.308,0,0,1-.914,4.237c-3.411,3.258-6.711,6.639-10.008,10.012-7.591,7.759-7.744,18.145-.241,25.935q8.031,8.317,16.333,16.333c7.908,7.648,18.279,7.488,26.207-.287,3.281-3.216,6.57-6.428,9.755-9.74,1.254-1.308,2.329-1.793,4.207-1.105,2.076.765,2.019,2.153,2.008,3.824-.038,4.719-.019,9.438,0,14.149a17.924,17.924,0,0,0,18.065,18.222q11.736.134,23.472,0c10.352-.115,17.973-7.843,18.088-18.272.057-4.841.069-9.686-.023-14.532-.031-1.686.348-2.677,2.088-3.365a3.128,3.128,0,0,1,3.927.826c3.185,3.312,6.47,6.524,9.74,9.751,8.317,8.207,18.635,8.218,27.017,0,4.784-4.7,9.308-9.683,14.272-14.18,9-8.153,9.358-19.885,0-28.861-2.96-2.837-5.736-5.859-8.715-8.673a3.307,3.307,0,0,1-.971-4.226c.738-1.82,1.866-1.969,3.468-1.95,4.845.061,9.69.076,14.532,0,10.386-.142,18.012-7.8,18.138-18.222.061-4.971.142-9.943-.046-14.914-.088-2.386.62-3.293,3.04-3.369a34.121,34.121,0,0,0,10.451-2.241,18.534,18.534,0,0,0,2.168-.409c19.335-6.084,33.426-18.585,42.421-36.425C393.995,209.2,393.578,187.51,383.1,166.378ZM313.375,286.936c-.05,4.868-2.2,7.04-7.055,7.082-6.333.053-12.669.122-19-.027-3.881-.092-6.317,1.377-7.576,5.136a92.86,92.86,0,0,1-3.683,8.929,6.807,6.807,0,0,0,1.53,8.44c4.665,4.631,9.22,9.373,13.817,14.073,3.243,3.319,3.384,6.05.2,9.323q-7.794,8.008-15.8,15.805c-3.335,3.25-6.294,3.151-9.709-.207-4.428-4.352-8.88-8.688-13.128-13.212-2.88-3.059-5.9-3.683-9.675-1.878-2.9,1.388-5.931,2.512-8.929,3.675a6.36,6.36,0,0,0-4.493,6.532c.061,6.578.05,13.163,0,19.744-.034,4.906-2.172,7.09-7.006,7.124q-10.8.08-21.606,0c-5.01-.031-7.1-2.2-7.128-7.3-.034-6.337-.1-12.669.023-19,.069-3.744-1.465-6.054-5.025-7.289-3.036-1.052-6.008-2.333-8.929-3.675-3.377-1.553-6.157-.994-8.742,1.683-4.31,4.47-8.727,8.837-13.136,13.208-3.977,3.946-6.753,3.927-10.78-.061q-7.147-7.071-14.237-14.21c-4.4-4.421-4.325-7.549.241-11.954,4.207-4.046,8.348-8.134,12.62-12.111,2.853-2.677,3.308-5.572,1.683-9.063-1.361-2.918-2.574-5.908-3.679-8.929-1.235-3.373-3.507-4.841-7.09-4.78-6.455.111-12.914.073-19.369.019-4.837-.038-6.975-2.233-7.059-7.094-.054-2.853-.076-5.709-.115-8.562.042-4.467.046-8.933.141-13.384s2.264-6.627,6.685-6.681c6.455-.076,12.914-.126,19.365,0,3.881.088,6.317-1.4,7.579-5.147a95.009,95.009,0,0,1,3.679-8.929c1.457-3.22,1.025-5.954-1.53-8.447-4.184-4.069-8.287-8.218-12.421-12.337-5.442-5.419-5.537-8.658.417-13.706,4.642-3.935,8.75-8.379,13.124-12.562,4.073-3.9,6.8-3.943,10.8.031,4.405,4.375,8.822,8.738,13.128,13.2,2.593,2.677,5.381,3.178,8.75,1.648,3.04-1.384,6.153-2.623,9.277-3.8a6.505,6.505,0,0,0,4.635-6.811c-.08-6.455-.05-12.91,0-19.365.027-5.147,2.111-7.266,7.208-7.285q10.612-.057,21.228,0c5.124.027,7.266,2.13,7.312,7.193.046,6.455.076,12.914,0,19.369-.05,3.415,1.35,5.644,4.547,6.883s6.459,2.528,9.629,3.935c3.254,1.446,5.943.872,8.413-1.675,4.31-4.467,8.7-8.838,13.105-13.212,4.073-4.042,6.8-4.1,10.78-.161q7.541,7.461,14.99,15.029c3.442,3.507,3.415,6.44-.057,9.966-4.44,4.512-8.887,9.021-13.476,13.392-2.83,2.7-3.3,5.579-1.675,9.067,1.358,2.914,2.581,5.9,3.675,8.925,1.224,3.384,3.491,4.857,7.071,4.8,6.08-.1,12.164-.034,18.249-.027,6.015,0,7.763,1.576,8.333,7.442C313.455,272.783,313.448,279.862,313.375,286.936Zm65.476-84.1c-2.031,27.392-23.27,50.646-49.817,54.616-2.975.444-5.067.356-6.883-2.914-3.029-5.457-8.3-8.031-14.566-8.184-4.971-.119-9.943-.061-14.914,0-1.568,0-2.78-.061-3.507-1.912a3.312,3.312,0,0,1,.937-4.237c3.247-3.09,6.272-6.394,9.53-9.453,6.773-6.421,9.637-16.88.447-26.711-5.254-5.625-10.75-11.036-16.337-16.329-7.759-7.354-18.031-7.174-25.664.249-3.381,3.293-6.746,6.608-10.023,10-1.254,1.3-2.329,1.82-4.207,1.1-2.011-.765-2.042-2.122-2.023-3.824.046-4.845.084-9.69,0-14.532a17.869,17.869,0,0,0-17.767-17.832q-12.111-.172-24.218,0a17.828,17.828,0,0,0-17.591,17.591c-.1,4.841-.054,9.686,0,14.532,0,1.8,0,3.247-2.157,4.1s-3.2-.306-4.44-1.553c-3.235-3.262-6.459-6.539-9.767-9.729-7.533-7.266-17.79-7.48-25.381-.287q-8.925,8.447-17.381,17.392c-6.707,7.109-6.555,17.426.176,24.555,3.5,3.7,7.128,7.266,10.78,10.822a3.152,3.152,0,0,1,.88,3.931,2.988,2.988,0,0,1-3.388,2.092c-2.727-.115-5.465-.031-8.734-.031-2.922.207-6.405-.344-9.855.424-4.853,1.086-8.853,3.587-11.27,7.859-1.5,2.65-3.25,2.493-5.518,1.912-18.107-4.47-32.5-14.317-41.759-30.562-13.908-24.352-12.857-48.769,3.262-71.61,23.488-33.27,71.369-36.532,99.889-7.438.765.8,1.507,1.663,2.352,2.386,2.616,2.241,5.709,2.226,8.065,0a5.689,5.689,0,0,0,.547-8.057,57.587,57.587,0,0,0-9.7-9.228c-14.39-11.251-30.731-17.017-49.01-16.715-3.824.061-4.176-1.185-3.576-4.356,6.237-32.738,33.006-59.97,66.081-65.606,35.4-6.031,63.943,6.05,84.983,35.182a72.609,72.609,0,0,1,10.776,22.646c.887,3.1,2.451,5.457,6.084,5.5,4.229.054,6.811-3.537,5.587-8a64.142,64.142,0,0,0-6.727-16.444c-1.637-2.677-.765-3.4,1.912-3.966a41.748,41.748,0,0,1,27.361,78.138c-1.22.608-2.516,1.078-3.69,1.763-2.857,1.663-3.893,4.207-2.772,7.289,1.071,2.937,3.442,4.157,6.535,3.7a12.876,12.876,0,0,0,3.5-1.182,52.442,52.442,0,0,0,26.21-26.344c1.071-2.348,2.149-2.723,4.509-2.027C362.832,149.265,380.886,175.383,378.851,202.833Z" transform="translate(0 0)" fill="url(#linear-gradient)"/>
    <path id="Path_972" data-name="Path 972" d="M425.19,562.423c-20.547,3.912-35.564,24.172-33.128,44.65,2.164,21.767,19.656,37.859,41.262,38,21.709.122,39.342-15.962,41.648-38a36.15,36.15,0,0,0-1.22-14.7C468.295,571.394,447,558.27,425.19,562.423ZM463.3,607.054c-1.53,7.648-4.742,14.333-10.918,19.335a29.765,29.765,0,0,1-48.008-16.826c-.191-.845-.444-1.675-.665-2.512-.585-12.019,3.335-22.034,13.683-28.681,9.881-6.34,20.379-6.681,30.639-.945,10.134,5.663,15.029,14.7,15.27,26.275.023,1.124,0,2.241,0,3.354Z" transform="translate(-221.501 -327.215)" fill="url(#linear-gradient)"/>
  </g>
</svg>
