<svg xmlns="http://www.w3.org/2000/svg" width="295" height="295" viewBox="0 0 295 295">
  <g id="DO_icon" transform="translate(43.96 43.5)" style="mix-blend-mode: luminosity;isolation: isolate">
    <rect id="Rectangle_523" data-name="Rectangle 523" width="295" height="295" transform="translate(-43.96 -43.5)" fill="#fff" opacity="0"/>
    <g id="DigitalOcean_Logo" data-name="DigitalOcean Logo" transform="translate(-43.96 75.745)">
      <g id="Layer_x0020_1_0" transform="translate(0 -1.087)">
        <g id="_349692160" transform="translate(0 0)">
          <path id="Path_996" data-name="Path 996" d="M24.894,48.4V38.815a15.223,15.223,0,0,0,14.2-20.756,14.194,14.194,0,0,0-8.581-8.516A15.305,15.305,0,0,0,9.648,23.656H0A24.936,24.936,0,0,1,32.756.135,24.051,24.051,0,0,1,48.481,15.772,24.836,24.836,0,0,1,24.894,48.4Z" transform="translate(0 1.087)" fill="rgba(0,105,255,0.5)" fill-rule="evenodd"/>
          <path id="Path_997" data-name="Path 997" d="M712.583,1405.517H703V1396h9.583Z" transform="translate(-687.689 -1365.572)" fill="rgba(0,105,255,0.5)" fill-rule="evenodd"/>
          <path id="Path_998" data-name="Path 998" d="M371.383,1840.361H364V1833h7.383Z" transform="translate(-356.072 -1793.055)" fill="rgba(0,105,255,0.5)" fill-rule="evenodd"/>
          <path id="Path_999" data-name="Path 999" d="M85.207,1559.1H79V1553h6.142v6.1Z" transform="translate(-77.279 -1519.153)" fill="rgba(0,105,255,0.5)" fill-rule="evenodd"/>
          <path id="Path_1000" data-name="Path 1000" d="M3187.514,526.94a18.3,18.3,0,0,0-10.52-2.94H3168v28.444h8.995a17.592,17.592,0,0,0,10.52-3.114,10.649,10.649,0,0,0,3.615-4.6,16.968,16.968,0,0,0,1.307-6.708,15.389,15.389,0,0,0-1.307-6.643,9.392,9.392,0,0,0-3.615-4.465Zm-14.244,1.829h2.832a14.254,14.254,0,0,1,7.688,1.83c2.178,1.285,3.31,3.811,3.31,7.4,0,3.7-1.132,6.294-3.31,7.71a13.758,13.758,0,0,1-7.623,1.873h-2.831V528.77Z" transform="translate(-3099.003 -512.564)" fill="rgba(0,105,255,0.5)" fill-rule="evenodd"/>
          <path id="Path_1001" data-name="Path 1001" d="M4440.114,505a2.991,2.991,0,0,0-2.178.871,2.959,2.959,0,0,0-.936,2.178,3.218,3.218,0,0,0,.893,2.243,3.053,3.053,0,0,0,2.243.871,3.158,3.158,0,0,0,2.243-.871,3.07,3.07,0,0,0,.894-2.243,2.921,2.921,0,0,0-.894-2.178,3.608,3.608,0,0,0-2.243-.871Z" transform="translate(-4340.365 -493.978)" fill="rgba(0,105,255,0.5)" fill-rule="evenodd"/>
          <path id="Path_1002" data-name="Path 1002" d="M4460,908h5.1v20.037H4460Z" transform="translate(-4362.864 -888.201)" fill="rgba(0,105,255,0.5)" fill-rule="evenodd"/>
          <path id="Path_1003" data-name="Path 1003" d="M4876.723,891.113a7.675,7.675,0,0,0-5.075-2.113,9.025,9.025,0,0,0-6.926,2.875A9.859,9.859,0,0,0,4862,899.04a10.271,10.271,0,0,0,2.657,7.165,9.19,9.19,0,0,0,6.926,2.831,8.068,8.068,0,0,0,5.031-1.59v.479a5.377,5.377,0,0,1-1.307,3.811,5.041,5.041,0,0,1-3.616,1.35c-2.373,0-3.79-.937-5.619-3.289l-3.419,3.289.109.109a12.224,12.224,0,0,0,3.375,3.005,10.5,10.5,0,0,0,5.62,1.459,9.616,9.616,0,0,0,7.209-2.766,10.163,10.163,0,0,0,2.722-7.3V889.37h-4.965v1.742Zm-1.35,11.826h0a4.345,4.345,0,0,1-3.485,1.459,4.188,4.188,0,0,1-3.419-1.459,6.6,6.6,0,0,1,0-7.884,4.3,4.3,0,0,1,3.419-1.459,4.414,4.414,0,0,1,3.485,1.459,5.749,5.749,0,0,1,1.307,3.942A5.352,5.352,0,0,1,4875.373,902.939Z" transform="translate(-4756.109 -869.615)" fill="rgba(0,105,255,0.5)" fill-rule="evenodd"/>
          <path id="Path_1004" data-name="Path 1004" d="M5964,908h5.1v20.037H5964Z" transform="translate(-5834.108 -888.201)" fill="rgba(0,105,255,0.5)" fill-rule="evenodd"/>
          <path id="Path_1005" data-name="Path 1005" d="M5944.114,505a3.087,3.087,0,0,0-3.114,3.049,3.222,3.222,0,0,0,.893,2.243,3.055,3.055,0,0,0,2.244.871,3.16,3.16,0,0,0,2.244-.871,3.073,3.073,0,0,0,.893-2.243,2.925,2.925,0,0,0-.893-2.178,3.472,3.472,0,0,0-2.244-.871Z" transform="translate(-5811.609 -493.978)" fill="rgba(0,105,255,0.5)" fill-rule="evenodd"/>
          <path id="Path_1006" data-name="Path 1006" d="M6354.861,659H6349.9v5.4H6347V669h2.9v8.3c0,2.592.522,4.465,1.546,5.532,1.066,1.067,2.9,1.655,5.445,1.655.827,0,1.655,0,2.482-.065h.24v-4.6l-1.72.109a3.493,3.493,0,0,1-2.419-.653,3.917,3.917,0,0,1-.587-2.635v-7.579h4.726v-4.6h-4.726V659Z" transform="translate(-6208.767 -644.624)" fill="rgba(0,105,255,0.5)" fill-rule="evenodd"/>
          <path id="Path_1007" data-name="Path 1007" d="M8017,522h5.075v28.444H8017Z" transform="translate(-7842.394 -510.608)" fill="rgba(0,105,255,0.5)" fill-rule="evenodd"/>
          <path id="Path_1008" data-name="Path 1008" d="M9908.354,902.285a14.988,14.988,0,0,1-2.549,2.352,5.086,5.086,0,0,1-6.251-1,6.89,6.89,0,0,1-.065-8.45,4.581,4.581,0,0,1,3.659-1.655A6.68,6.68,0,0,1,9908,896.3l3.376-3.18a9.937,9.937,0,0,0-8.275-4.116,9.61,9.61,0,0,0-7.145,3.005,10.23,10.23,0,0,0-2.961,7.47,10.126,10.126,0,0,0,2.961,7.47,9.681,9.681,0,0,0,7.145,3.006,10.107,10.107,0,0,0,8.624-4.465l-3.375-3.18Z" transform="translate(-9677.538 -869.615)" fill="rgba(0,105,255,0.5)" fill-rule="evenodd"/>
          <path id="Path_1009" data-name="Path 1009" d="M10812.508,889.289a7.889,7.889,0,0,0-2.9-2.417,9.4,9.4,0,0,0-4.2-.871,8.727,8.727,0,0,0-6.861,3.049,11.341,11.341,0,0,0-2.548,7.514,10.367,10.367,0,0,0,2.788,7.47,9.891,9.891,0,0,0,7.339,2.875,10.145,10.145,0,0,0,8.342-4.051l.108-.109-3.311-3.18c-.3.348-.762.762-1.133,1.176a4.794,4.794,0,0,1-1.479,1.067,6.017,6.017,0,0,1-2.548.588,4.746,4.746,0,0,1-3.42-1.241,4.486,4.486,0,0,1-1.416-3.049h13.416l.066-1.829a12.32,12.32,0,0,0-.545-3.7,14.27,14.27,0,0,0-1.721-3.289Zm-11.063,4.7h0a5.183,5.183,0,0,1,1.307-2.352,3.8,3.8,0,0,1,2.658-1,3.616,3.616,0,0,1,2.831,1.067,3.786,3.786,0,0,1,1,2.352h-7.8Z" transform="translate(-10560.871 -866.68)" fill="rgba(0,105,255,0.5)" fill-rule="evenodd"/>
          <path id="Path_1010" data-name="Path 1010" d="M11780.831,890.938a9.6,9.6,0,0,0-6.315-1.938,10.06,10.06,0,0,0-4.662,1.067,8.2,8.2,0,0,0-3.419,3.223l.065.065,3.245,3.115c1.351-2.113,2.832-2.875,4.791-2.875a4.016,4.016,0,0,1,2.592.828,2.641,2.641,0,0,1,1,2.178v1a13.83,13.83,0,0,0-3.724-.588,9.752,9.752,0,0,0-6.1,1.764,5.936,5.936,0,0,0-2.309,4.988,5.685,5.685,0,0,0,1.96,4.53,7.336,7.336,0,0,0,4.9,1.655,8.387,8.387,0,0,0,5.38-2.113v1.655h4.966V896.623a7.177,7.177,0,0,0-2.374-5.641Zm-9,10.868h0a4.058,4.058,0,0,1,2.418-.588,11.514,11.514,0,0,1,3.833.7v1.938a6.372,6.372,0,0,1-4.377,1.525,2.862,2.862,0,0,1-2-.588,1.69,1.69,0,0,1-.719-1.459,1.637,1.637,0,0,1,.827-1.525Z" transform="translate(-11509.744 -869.615)" fill="rgba(0,105,255,0.5)" fill-rule="evenodd"/>
          <path id="Path_1011" data-name="Path 1011" d="M12742.725,888.352a7.467,7.467,0,0,0-5.9-2.352,6.94,6.94,0,0,0-4.856,1.7v-1.241H12727v20.037h5.073V895.452a5.522,5.522,0,0,1,1.068-3.594,3.667,3.667,0,0,1,3.006-1.285,3.274,3.274,0,0,1,2.657,1.111,4.736,4.736,0,0,1,.936,3.18v11.587h5.076V894.864a9.473,9.473,0,0,0-2.136-6.534Z" transform="translate(-12449.815 -866.68)" fill="rgba(0,105,255,0.5)" fill-rule="evenodd"/>
          <path id="Path_1012" data-name="Path 1012" d="M7057.831,890.938a9.6,9.6,0,0,0-6.316-1.938,10.057,10.057,0,0,0-4.661,1.067,8.207,8.207,0,0,0-3.418,3.223l.065.065,3.245,3.115c1.35-2.113,2.832-2.875,4.791-2.875a4.017,4.017,0,0,1,2.592.828,2.64,2.64,0,0,1,1,2.178v1a13.821,13.821,0,0,0-3.724-.588,9.751,9.751,0,0,0-6.1,1.764,5.937,5.937,0,0,0-2.309,4.988,5.684,5.684,0,0,0,1.96,4.53,7.338,7.338,0,0,0,4.9,1.655,8.388,8.388,0,0,0,5.38-2.113v1.655h4.965V896.623a7.171,7.171,0,0,0-2.374-5.641Zm-8.995,10.868h0a4.053,4.053,0,0,1,2.417-.588,11.514,11.514,0,0,1,3.833.7v1.938a6.375,6.375,0,0,1-4.377,1.525,2.863,2.863,0,0,1-2-.588,1.693,1.693,0,0,1-.719-1.459,1.639,1.639,0,0,1,.828-1.525Z" transform="translate(-6889.607 -869.615)" fill="rgba(0,105,255,0.5)" fill-rule="evenodd"/>
          <path id="Path_1013" data-name="Path 1013" d="M8430.724,532.271a14.636,14.636,0,1,1,14.722-14.636A14.713,14.713,0,0,1,8430.724,532.271Zm0-24.153h0a9.474,9.474,0,1,0,9.516,9.474A9.476,9.476,0,0,0,8430.724,508.118Z" transform="translate(-8232.706 -492.021)" fill="rgba(0,105,255,0.5)" fill-rule="evenodd"/>
        </g>
      </g>
    </g>
  </g>
</svg>
