<svg xmlns="http://www.w3.org/2000/svg" width="295" height="295" viewBox="0 0 295 295">
  <g id="Linode_icon" transform="translate(43.96 43.5)" opacity="0.5" style="mix-blend-mode: luminosity;isolation: isolate">
    <rect id="Rectangle_523" data-name="Rectangle 523" width="295" height="295" transform="translate(-43.96 -43.5)" fill="#fff" opacity="0"/>
    <g id="linode" transform="translate(-35.66 49.5)">
      <path id="Path_1014" data-name="Path 1014" d="M93.821,28.1l7.04-1.7V60.385c0,3.763,1.092,5.947,3.277,6.676a5.8,5.8,0,0,1-5.583,3.156c-3.156,0-4.855-2.185-4.855-6.676V28.1Zm17.721,41.51V45.092h-3.884V39.266H118.7V69.609Zm3.641-42a4.12,4.12,0,0,1,2.913,7.04,4.12,4.12,0,1,1-5.826-5.826A3.945,3.945,0,0,1,115.183,27.614Zm31.193,42V52.131c0-2.549-.485-4.491-1.456-5.583-.971-1.214-2.549-1.821-4.855-1.821a6.606,6.606,0,0,0-3.277.85A8.614,8.614,0,0,0,134,47.762V69.609h-7.04V39.387h5.1l1.335,2.792c1.942-2.306,4.734-3.4,8.5-3.4,3.641,0,6.433,1.092,8.5,3.277a12.65,12.65,0,0,1,3.156,8.982v18.57ZM159,54.438A16.052,16.052,0,0,1,163,43.15a13.644,13.644,0,0,1,10.56-4.369c4.612,0,8.132,1.335,10.681,4.127s3.763,6.554,3.763,11.409-1.335,8.618-3.884,11.531c-2.549,2.792-6.069,4.248-10.681,4.248s-8.132-1.456-10.681-4.248A17.212,17.212,0,0,1,159,54.438Zm7.4,0c0,6.676,2.427,9.953,7.161,9.953a6.276,6.276,0,0,0,5.219-2.549c1.335-1.7,1.942-4.248,1.942-7.4,0-6.554-2.427-9.831-7.161-9.831a6.123,6.123,0,0,0-5.219,2.549C167.01,48.854,166.4,51.282,166.4,54.438Zm46.729,15.172V67.789a8,8,0,0,1-2.913,1.7,12.7,12.7,0,0,1-4.37.728c-4.248,0-7.525-1.335-9.953-4.005s-3.641-6.433-3.641-11.166,1.335-8.618,4.127-11.652A13.428,13.428,0,0,1,206.821,38.9a13.794,13.794,0,0,1,6.311,1.456V28.221l7.04-1.7V69.609Zm0-23.061a7.25,7.25,0,0,0-4.734-1.821,8.5,8.5,0,0,0-6.554,2.549c-1.578,1.7-2.306,4.248-2.306,7.4q0,9.467,9.1,9.467a8.4,8.4,0,0,0,2.549-.607,5.345,5.345,0,0,0,1.942-1.214V46.548Zm41.146,10.074h-21.6a7.731,7.731,0,0,0,2.427,5.583,9.065,9.065,0,0,0,6.19,2.063c3.156,0,5.7-.85,7.283-2.549l2.792,5.34c-2.427,2.063-6.19,3.034-11.166,3.034q-6.918,0-10.924-4.005T225.27,54.8c0-4.734,1.456-8.618,4.37-11.531A14.386,14.386,0,0,1,240.2,38.9a14.7,14.7,0,0,1,10.56,3.884,13.448,13.448,0,0,1,4.005,9.953,13.665,13.665,0,0,1-.486,3.884Zm-21.362-5.34h14.808c-.486-4.369-2.913-6.676-7.283-6.676C236.437,44.728,233.888,46.912,232.917,51.282Z" transform="translate(19.237 5.429)"/>
      <g id="Group_260" data-name="Group 260" transform="translate(3.7 1)">
        <path id="Path_1015" data-name="Path 1015" d="M78.96,55.565,77.746,69.523l-4.005-2.792.486-7.04v-.243l-.121-.121-.121-.121-8.618-5.7.121-6.19L78.96,55.565ZM57.841,70.737,51.651,66V67.1a.927.927,0,0,1-.243.607L46.8,70.858l5.1,4.127.121.121v.243l.243,4.855,5.7,4.734-.121-14.2ZM18.879,76.806l2.913,13.958,12.016,12.744L31.745,89.429,18.879,76.806Zm11.288,2.063L27.254,59.328,12.689,47.19l3.884,18.934ZM25.555,47.312,21.55,19.638,4.8,9.2l5.462,26.1Z" transform="translate(-3.465 0.753)" fill="#004712"/>
        <path id="Path_1016" data-name="Path 1016" d="M87.691,47.912l-1.821,13.23-9.953,8.011,1.214-13.594,10.56-7.647Zm-31.679,22.7.121,14.322,12.744-10.2.85-13.958Zm-8.253,5.826L29.8,89.3l2.185,14.808L48.244,91.121l-.486-14.686Zm-.486-9.71-.85-19.42-21,12.016,2.913,20.148ZM45.938,36.017,44.846,9.8,19.6,19.51l4.127,28.159L45.938,36.017Z" transform="translate(-0.301 0.881)" fill="#00b259"/>
        <path id="Path_1017" data-name="Path 1017" d="M92.546,48.336h0v-.243a.119.119,0,0,0-.121-.121.119.119,0,0,1-.121-.121L77.739,39.719a.542.542,0,0,0-.607,0l-12.38,7.525H64.63v.728l-.121,6.554-4.976-3.277a.774.774,0,0,0-.728,0l-7.4,4.127-.364-7.282v-.607h-.121L43.39,42.51l7.04-3.641a.667.667,0,0,0,.364-.607L49.458,10.71v-.121a.119.119,0,0,0-.121-.121.119.119,0,0,0-.121-.121L30.16,1.121A.446.446,0,0,0,29.8,1L3.943,9.011a.119.119,0,0,0-.121.121.119.119,0,0,0-.121.121v.728L9.4,37.777c0,.121.121.243.243.364l7.768,6.069-5.7,2.67a.119.119,0,0,0-.121.121.119.119,0,0,1-.121.121v.243l4.369,20.876c0,.121.121.243.243.364l5.462,5.1L17.9,75.888l-.121.121a.119.119,0,0,1-.121.121V76.5l3.4,16.143c0,.121.121.243.121.364l13.23,14.565h.121a.119.119,0,0,1,.121.121h.607L52.735,93.73a.92.92,0,0,0,.243-.486l-.364-9.589,5.826,4.855a.119.119,0,0,1,.121.121h.607L73.248,77.466a.631.631,0,0,0,.243-.486l.485-7.04,4.248,2.913h.486a.119.119,0,0,0,.121-.121l11.409-9.1c.121-.121.243-.243.243-.364l2.063-14.929Zm-13.23,22.7L80.53,57.439l10.681-7.647-1.821,13.23L79.316,71.033Zm-5.34-2.549.485-7.04V61.2l-.121-.121-.121-.121-8.618-5.7.121-6.19L79.2,57.439,77.981,71.4l-4.005-2.913Zm-1.821,8.132-12.744,10.2L59.29,72.49,73,62.658ZM51.764,93,35.379,105.989,33.194,91.181,51.036,78.437Zm-29.858-.485L18.993,78.558,31.98,91.181l2.063,14.079L21.906,92.517Zm-.243-71.126,4.005,27.673L10.5,37.048l-5.462-26.1L21.663,21.391Zm26.581-9.71L49.337,37.9,27.125,49.55,23,21.391l25.246-9.71Zm2.427,56.925L31.738,81.229,28.825,61.081l21-12.016.85,19.541ZM27.489,61.2,30.4,80.743,16.808,67.878,12.924,48.943ZM52.371,77.1v-.243l-.121-.121-5.1-4.127,4.612-3.156c.243-.121.243-.364.243-.607V67.756L58.2,72.49l.121,14.322-5.7-4.734L52.371,77.1Z" transform="translate(-3.7 -1)"/>
      </g>
    </g>
  </g>
</svg>
