<svg xmlns="http://www.w3.org/2000/svg" xmlns:xlink="http://www.w3.org/1999/xlink" width="216.142" height="70.889" viewBox="0 0 216.142 70.889">
  <defs>
    <filter id="Path_25" x="0" y="0" width="72.078" height="70.889" filterUnits="userSpaceOnUse">
      <feOffset input="SourceAlpha"/>
      <feGaussianBlur stdDeviation="5" result="blur"/>
      <feFlood flood-color="#0217a1"/>
      <feComposite operator="in" in2="blur"/>
      <feComposite in="SourceGraphic"/>
    </filter>
    <filter id="Path_994" x="57.811" y="18.854" width="158.331" height="38.882" filterUnits="userSpaceOnUse">
      <feOffset dy="3" input="SourceAlpha"/>
      <feGaussianBlur stdDeviation="3" result="blur-2"/>
      <feFlood flood-opacity="0.161"/>
      <feComposite operator="in" in2="blur-2"/>
      <feComposite in="SourceGraphic"/>
    </filter>
  </defs>
  <g id="logo" transform="translate(-253.215 -190.616)">
    <g id="Group_9" data-name="Group 9" transform="translate(267.534 205)">
      <g transform="matrix(1, 0, 0, 1, -14.32, -14.38)" filter="url(#Path_25)">
        <path id="Path_25-2" data-name="Path 25" d="M271.017,304.559a3.3,3.3,0,0,1-2.6-1.26l-9.8-12.183a3.288,3.288,0,0,1-.644-2.857l3.5-15.207a3.313,3.313,0,0,1,1.82-2.268l14.171-6.777a3.324,3.324,0,0,1,2.913,0l14.171,6.75a3.313,3.313,0,0,1,1.82,2.268l3.5,15.207a3.379,3.379,0,0,1-.644,2.857l-9.8,12.183a3.39,3.39,0,0,1-2.6,1.26l-15.8.028Z" transform="translate(-242.87 -248.67)" fill="#fff"/>
      </g>
      <path id="Path_26" data-name="Path 26" d="M271.7,257.873a2.74,2.74,0,0,1,1.148.252l14.171,6.749a2.72,2.72,0,0,1,1.456,1.82l3.5,15.207a2.619,2.619,0,0,1-.532,2.3l-9.8,12.183a2.668,2.668,0,0,1-2.1,1.008H263.829a2.668,2.668,0,0,1-2.1-1.008l-9.8-12.183a2.8,2.8,0,0,1-.532-2.3l3.5-15.207a2.674,2.674,0,0,1,1.456-1.82l14.171-6.778a3.375,3.375,0,0,1,1.176-.224Zm0-1.316h0a4.238,4.238,0,0,0-1.736.392l-14.171,6.777a3.966,3.966,0,0,0-2.184,2.717l-3.5,15.207a3.971,3.971,0,0,0,.784,3.417l9.8,12.183a3.956,3.956,0,0,0,3.109,1.484h15.712a3.956,3.956,0,0,0,3.109-1.484l9.8-12.183a3.951,3.951,0,0,0,.784-3.417l-3.5-15.207a3.966,3.966,0,0,0-2.184-2.717l-14.115-6.777a4.015,4.015,0,0,0-1.708-.392Z" transform="translate(-250 -256.557)" fill="#fff"/>
      <g id="Group_11" data-name="Group 11" transform="translate(4.578 4.483)">
        <path id="Path_27" data-name="Path 27" d="M362.529,351.467H362.5c-.032,0-.064,0-.064-.032-.064,0-.128-.032-.192-.032a4.387,4.387,0,0,0-.609-.064,1.205,1.205,0,0,1-.321-.032h-.032a8.46,8.46,0,0,1-1.731-.289.624.624,0,0,1-.353-.353c0-.032-.032-.032-.032-.064h0l-.417-.128a12.684,12.684,0,0,0-.224-4.52,13.212,13.212,0,0,0-1.8-4.2l.321-.288V341.4a.724.724,0,0,1,.16-.481,9.347,9.347,0,0,1,1.443-.994h0c.1-.064.192-.1.288-.16a4.826,4.826,0,0,0,.545-.321c.032-.032.1-.064.16-.128.032-.032.064-.032.064-.064h0a1.071,1.071,0,0,0,.224-1.443.912.912,0,0,0-.737-.353,1.191,1.191,0,0,0-.705.257h0l-.064.064c-.064.032-.1.1-.16.128a5.322,5.322,0,0,0-.417.449,1.481,1.481,0,0,1-.224.224h0a8.152,8.152,0,0,1-1.282,1.154.517.517,0,0,1-.288.1.407.407,0,0,1-.192-.032H355.8l-.385.257a15.565,15.565,0,0,0-1.314-1.218,12.8,12.8,0,0,0-6.7-2.661l-.032-.417-.064-.064a.67.67,0,0,1-.256-.417,11.246,11.246,0,0,1,.1-1.731v-.032a1.138,1.138,0,0,1,.064-.321c.032-.192.064-.385.1-.609V332.3h0a.978.978,0,0,0-1.7-.737,1.015,1.015,0,0,0-.289.737h0v.256a1.865,1.865,0,0,0,.1.609c.032.1.032.192.064.321v.032a8.282,8.282,0,0,1,.1,1.731.67.67,0,0,1-.256.417l-.064.064h0l-.032.417a16.089,16.089,0,0,0-1.731.257,12.358,12.358,0,0,0-6.347,3.59l-.321-.224h-.064c-.064,0-.128.032-.192.032a.517.517,0,0,1-.289-.1,8.489,8.489,0,0,1-1.282-1.186h0a1.482,1.482,0,0,0-.224-.224,5.33,5.33,0,0,0-.417-.449c-.032-.032-.1-.064-.16-.128-.032-.032-.064-.032-.064-.064h0a1.12,1.12,0,0,0-.705-.256.912.912,0,0,0-.737.353,1.071,1.071,0,0,0,.224,1.443h0c.032,0,.032.032.064.032.064.032.1.1.16.128a4.832,4.832,0,0,0,.545.321,1.3,1.3,0,0,1,.289.16h0a9.35,9.35,0,0,1,1.443.994.589.589,0,0,1,.16.481v.064h0l.321.288a1.121,1.121,0,0,0-.16.257,12.486,12.486,0,0,0-1.8,8.463l-.417.128c0,.032-.032.032-.032.064a.745.745,0,0,1-.353.353,8.094,8.094,0,0,1-1.731.289h-.032a1.091,1.091,0,0,0-.321.032,4.379,4.379,0,0,0-.609.064c-.064,0-.128.032-.192.032a.118.118,0,0,0-.1.032h0a1.051,1.051,0,0,0-.833,1.186.988.988,0,0,0,1.026.737.707.707,0,0,0,.256-.032h0c.032,0,.064,0,.064-.032.064,0,.128-.032.192-.032a3.08,3.08,0,0,0,.577-.224c.1-.032.192-.1.289-.128h.032a7.873,7.873,0,0,1,1.667-.481h.064a.714.714,0,0,1,.417.16c.032,0,.032.032.064.032h0l.449-.064a12.678,12.678,0,0,0,4.2,6.027,12.97,12.97,0,0,0,1.378.93l-.192.417c0,.032.032.032.032.064a.658.658,0,0,1,.064.513,9.046,9.046,0,0,1-.834,1.507v.032c-.064.1-.128.16-.192.256-.128.16-.224.321-.353.513a.7.7,0,0,0-.1.16.112.112,0,0,1-.032.064h0a1.014,1.014,0,0,0,.417,1.378.853.853,0,0,0,.385.1,1.153,1.153,0,0,0,.962-.609h0a.112.112,0,0,1,.032-.064.7.7,0,0,1,.1-.16,6.039,6.039,0,0,0,.192-.577l.1-.289h0a7.537,7.537,0,0,1,.673-1.6.822.822,0,0,1,.417-.288c.032,0,.032,0,.064-.032h0l.224-.417a12.526,12.526,0,0,0,4.488.833,11.636,11.636,0,0,0,2.789-.321,14.255,14.255,0,0,0,1.667-.481l.192.353c.032,0,.032,0,.064.032a.594.594,0,0,1,.417.289,10.973,10.973,0,0,1,.673,1.6v.032l.1.289a4.069,4.069,0,0,0,.192.577c.032.064.064.1.1.16a.112.112,0,0,0,.032.064h0a1.089,1.089,0,0,0,.962.609.854.854,0,0,0,.385-.1.955.955,0,0,0,.481-.577,1.159,1.159,0,0,0-.064-.8h0c0-.032-.032-.032-.032-.064a.7.7,0,0,0-.1-.16,2.908,2.908,0,0,0-.353-.513c-.064-.1-.128-.16-.192-.256v-.032a7.2,7.2,0,0,1-.834-1.507.893.893,0,0,1,.032-.513c0-.032.032-.032.032-.064h0l-.16-.385a12.718,12.718,0,0,0,5.578-7.021l.385.064c.032,0,.032-.032.064-.032a.814.814,0,0,1,.417-.16h.064a7.877,7.877,0,0,1,1.667.481h.032c.1.032.192.1.288.128a3.082,3.082,0,0,0,.577.224c.064,0,.128.032.192.032a.118.118,0,0,1,.1.032h0a.707.707,0,0,0,.257.032,1.079,1.079,0,0,0,1.026-.737,1.234,1.234,0,0,0-.93-1.058ZM347.687,349.9l-1.411.673-1.41-.673-.353-1.507.962-1.218h1.571l.962,1.218-.321,1.507Zm8.367-3.334a10.109,10.109,0,0,1,.224,3.238l-4.9-1.411a.869.869,0,0,1-.609-1.026.764.764,0,0,1,.192-.353l3.879-3.494a10.273,10.273,0,0,1,1.218,3.045Zm-2.757-4.969-4.2,2.981a.854.854,0,0,1-1.122-.192.713.713,0,0,1-.16-.353l-.288-5.225a9.73,9.73,0,0,1,5.77,2.789Zm-9.3-2.629c.353-.064.673-.128,1.026-.192l-.288,5.129a.877.877,0,0,1-.866.834.761.761,0,0,1-.385-.1l-4.264-3.045A9.78,9.78,0,0,1,344,338.965Zm-6.315,4.552,3.815,3.4a.854.854,0,0,1,.1,1.186.639.639,0,0,1-.385.257l-4.969,1.443a10.32,10.32,0,0,1,1.443-6.283Zm-.866,8.687,5.1-.866a.865.865,0,0,1,.9.673.917.917,0,0,1-.032.513h0l-1.956,4.712a10.1,10.1,0,0,1-4.007-5.033Zm11.7,6.379a10.465,10.465,0,0,1-2.244.257,10.86,10.86,0,0,1-3.238-.513l2.532-4.584a.842.842,0,0,1,1.026-.224,1.366,1.366,0,0,1,.385.353h0l2.468,4.456c-.288.1-.609.16-.93.256Zm6.251-4.456a10.174,10.174,0,0,1-3.078,3.11l-2.02-4.841a.863.863,0,0,1,.449-.994,1.023,1.023,0,0,1,.449-.1l5.129.866a6.448,6.448,0,0,1-.93,1.955Z" transform="translate(-329.302 -331.239)" fill="#3a50e4"/>
        <g id="Group_10" data-name="Group 10" transform="translate(2.775 3.355)">
          <path id="Path_34" data-name="Path 34" d="M3.753.56A.882.882,0,0,1,5.417.623c.031.04.391.626.751,1.217C7.386,3.9,9.51,7.4,9.51,7.4c.2.565-.911.843-1.512.843l-6.218.422c-.6,0-1.964-.336-1.76-.9Z" transform="translate(19.567 17.592) rotate(-101)" fill="#fff"/>
          <path id="Path_30" data-name="Path 30" d="M3.536.56A.882.882,0,0,1,5.2.623c.031.04.391.626.751,1.217C7.17,3.9,9.374,7.207,9.374,7.207c.2.565-.992,1.034-1.593,1.034l-6.218.422c-.6,0-1.744-.565-1.54-1.13Z" transform="matrix(0.999, 0.035, -0.035, 0.999, 9.847, 18.695)" fill="#fff"/>
          <path id="Path_33" data-name="Path 33" d="M3.536.605A.873.873,0,0,1,5.189.578c.031.04.4.717.762,1.307,1.219,2.056,3.413,5.56,3.413,5.56.2.565-.982.841-1.583.841l-6.218.422c-.6,0-1.744-.565-1.54-1.13Z" transform="matrix(-0.883, -0.469, 0.469, -0.883, 20.014, 12.097)" fill="#fff"/>
          <path id="Path_31" data-name="Path 31" d="M3.546.56A.882.882,0,0,1,5.21.623c.031.04.391.626.751,1.217,1.219,2.056,3.518,5.5,3.518,5.5.2.565-1.087.905-1.688.905l-6.218.422c-.6,0-1.754-.358-1.55-.923Z" transform="translate(14.877 20.267) rotate(-49)" fill="#fff"/>
          <path id="Path_32" data-name="Path 32" d="M3.546.56A.882.882,0,0,1,5.21.623c.031.04.391.626.751,1.217,1.219,2.056,3.5,5.932,3.5,5.932.2.565-1.071.47-1.672.47l-6.218.422c-.6,0-1.754-.358-1.55-.923Z" transform="matrix(-0.921, 0.391, -0.391, -0.921, 16.198, 8.471)" fill="#fff"/>
          <path id="Path_35" data-name="Path 35" d="M3.676.56A.882.882,0,0,1,5.34.623c.031.04.574.881.934,1.471C7.493,4.15,9.687,7.959,9.687,7.959c.2.565-1.166.282-1.766.282L1.7,8.664c-.6,0-1.886-.577-1.682-1.142Z" transform="matrix(-0.259, 0.966, -0.966, -0.259, 10.881, 8.836)" fill="#fff"/>
          <path id="Path_29" data-name="Path 29" d="M3.753.56A.882.882,0,0,1,5.417.623c.031.04.391.626.751,1.217C7.386,3.9,9.937,7.822,9.937,7.822c.2.565-1.338.419-1.939.419l-6.218.422c-.6,0-1.964-.336-1.76-.9Z" transform="matrix(0.588, 0.809, -0.809, 0.588, 7.924, 13.411)" fill="#fff"/>
        </g>
      </g>
      <path id="Path_28" data-name="Path 28" d="M16.773,11.783a4.464,4.464,0,0,0,.059-.582A4.507,4.507,0,0,0,8.389,8.989a2.81,2.81,0,0,0-.909-.184,2.868,2.868,0,0,0-2.868,2.868c0,.016.009.029.01.045a2.828,2.828,0,0,0,.225,5.648H16.234a2.847,2.847,0,0,0,2.847-2.847A2.808,2.808,0,0,0,16.773,11.783Z" transform="translate(11.117 9.065)" fill="#fff"/>
      <path id="Path_28_-_Outline" data-name="Path 28 - Outline" d="M-2.869-8.511A4.508,4.508,0,0,0-6.8-6.2a2.81,2.81,0,0,0-.909-.184,2.868,2.868,0,0,0-2.868,2.868c0,.016.009.029.01.045A2.828,2.828,0,0,0-13.192-.539a2.828,2.828,0,0,0,2.846,2.715H1.041A2.847,2.847,0,0,0,3.888-.671,2.808,2.808,0,0,0,1.58-3.409a4.465,4.465,0,0,0,.059-.582A4.507,4.507,0,0,0-1.726-8.364a4.507,4.507,0,0,0-1.142-.147m0-1.808h0a6.322,6.322,0,0,1,1.6.206A6.316,6.316,0,0,1,3.417-4.627,4.621,4.621,0,0,1,5.7-.687,4.664,4.664,0,0,1,1.041,3.984H-10.346A4.628,4.628,0,0,1-15-.467a4.616,4.616,0,0,1,2.824-4.459,4.654,4.654,0,0,1,1.155-1.9,4.646,4.646,0,0,1,3.307-1.37l.115,0A6.322,6.322,0,0,1-2.869-10.32Z" transform="translate(26.31 24.256)" fill="#3a50e4"/>
    </g>
    <g transform="matrix(1, 0, 0, 1, 253.22, 190.62)" filter="url(#Path_994)">
      <path id="Path_994-2" data-name="Path 994" d="M1.653,0V-20.88H5.51v8.5h4.9l7.134-8.5h4.176v1.1l-7.83,9.338L21.75-1.1V0H17.545L10.411-8.5H5.51V0ZM28.768,0a3.732,3.732,0,0,1-2.016-.551A4.38,4.38,0,0,1,25.317-2a3.754,3.754,0,0,1-.551-2V-8.555a3.417,3.417,0,0,1,.174-1.059,6.446,6.446,0,0,1,.435-1.03,6.446,6.446,0,0,1-.435-1.03,3.5,3.5,0,0,1-.174-1.088v-4.118a3.806,3.806,0,0,1,.551-2.03,4.38,4.38,0,0,1,1.435-1.45,3.554,3.554,0,0,1,2.016-.522H41.441a3.509,3.509,0,0,1,1.813.421,4.583,4.583,0,0,1,1.421,1.2,3.81,3.81,0,0,1,.769,1.653v4.843a4.16,4.16,0,0,1-.609,2.117,3.814,3.814,0,0,1,.609,2.088V-4a3.5,3.5,0,0,1-.536,2,4.467,4.467,0,0,1-1.465,1.45,3.754,3.754,0,0,1-2,.551Zm.145-3.77V-3.8H41.3a.28.28,0,0,0,.276-.087.291.291,0,0,0,.073-.261V-8.381a.291.291,0,0,0-.073-.261.28.28,0,0,0-.276-.087H28.913a.276.276,0,0,0-.261.087.276.276,0,0,0-.087.261v4.234a.276.276,0,0,0,.087.261A.361.361,0,0,0,28.913-3.77Zm0-8.468H41.3a.372.372,0,0,0,.276-.1.257.257,0,0,0,.073-.247V-16.7a.291.291,0,0,0-.073-.261.28.28,0,0,0-.276-.087H28.913a.276.276,0,0,0-.261.087.276.276,0,0,0-.087.261v4.118a.245.245,0,0,0,.087.247A.386.386,0,0,0,28.913-12.238ZM52.258,0A3.426,3.426,0,0,1,50.5-.464a3.433,3.433,0,0,1-1.261-1.261,3.426,3.426,0,0,1-.464-1.755v-.812h2.349v.812a1.088,1.088,0,0,0,.333.8,1.088,1.088,0,0,0,.8.334h13.92a1.088,1.088,0,0,0,.8-.334,1.088,1.088,0,0,0,.334-.8V-8.149a1.041,1.041,0,0,0-.334-.783,1.113,1.113,0,0,0-.8-.319H52.258A3.346,3.346,0,0,1,50.5-9.729a3.584,3.584,0,0,1-1.261-1.262,3.349,3.349,0,0,1-.464-1.74V-17.4a3.426,3.426,0,0,1,.464-1.754A3.433,3.433,0,0,1,50.5-20.416a3.426,3.426,0,0,1,1.755-.464h13.92a3.426,3.426,0,0,1,1.755.464,3.433,3.433,0,0,1,1.262,1.262,3.426,3.426,0,0,1,.464,1.754v.812H67.309V-17.4a1.088,1.088,0,0,0-.334-.8,1.088,1.088,0,0,0-.8-.333H52.258a1.088,1.088,0,0,0-.8.333,1.088,1.088,0,0,0-.333.8v4.669a1.041,1.041,0,0,0,.333.783,1.113,1.113,0,0,0,.8.319h13.92a3.346,3.346,0,0,1,1.755.478,3.584,3.584,0,0,1,1.262,1.262,3.349,3.349,0,0,1,.464,1.74V-3.48a3.426,3.426,0,0,1-.464,1.755A3.433,3.433,0,0,1,67.932-.464,3.426,3.426,0,0,1,66.178,0ZM72.819,0V-17.4a3.426,3.426,0,0,1,.464-1.754,3.433,3.433,0,0,1,1.262-1.262A3.426,3.426,0,0,1,76.3-20.88h13.92a3.426,3.426,0,0,1,1.755.464,3.433,3.433,0,0,1,1.261,1.262A3.426,3.426,0,0,1,93.7-17.4V0H91.35V-7.627H75.168V0Zm2.349-9.976H91.35V-17.4a1.088,1.088,0,0,0-.333-.8,1.088,1.088,0,0,0-.8-.333H76.3a1.088,1.088,0,0,0-.8.333,1.088,1.088,0,0,0-.334.8ZM97.063,0V-17.4a3.426,3.426,0,0,1,.464-1.754,3.433,3.433,0,0,1,1.262-1.262,3.426,3.426,0,0,1,1.755-.464h13.92a3.426,3.426,0,0,1,1.755.464,3.433,3.433,0,0,1,1.261,1.262,3.426,3.426,0,0,1,.464,1.754V0h-2.349V-7.627H99.412V0Zm2.349-9.976h16.182V-17.4a1.088,1.088,0,0,0-.333-.8,1.088,1.088,0,0,0-.8-.333h-13.92a1.088,1.088,0,0,0-.8.333,1.088,1.088,0,0,0-.334.8ZM124.584,0a3.426,3.426,0,0,1-1.755-.464,3.433,3.433,0,0,1-1.261-1.261A3.426,3.426,0,0,1,121.1-3.48v-.812h2.349v.812a1.088,1.088,0,0,0,.333.8,1.088,1.088,0,0,0,.8.334H138.5a1.088,1.088,0,0,0,.8-.334,1.088,1.088,0,0,0,.334-.8V-8.149a1.041,1.041,0,0,0-.334-.783,1.113,1.113,0,0,0-.8-.319h-13.92a3.346,3.346,0,0,1-1.755-.478,3.584,3.584,0,0,1-1.261-1.262,3.349,3.349,0,0,1-.464-1.74V-17.4a3.426,3.426,0,0,1,.464-1.754,3.433,3.433,0,0,1,1.261-1.262,3.426,3.426,0,0,1,1.755-.464H138.5a3.426,3.426,0,0,1,1.755.464,3.433,3.433,0,0,1,1.262,1.262,3.426,3.426,0,0,1,.464,1.754v.812h-2.349V-17.4a1.088,1.088,0,0,0-.334-.8,1.088,1.088,0,0,0-.8-.333h-13.92a1.088,1.088,0,0,0-.8.333,1.088,1.088,0,0,0-.333.8v4.669a1.041,1.041,0,0,0,.333.783,1.113,1.113,0,0,0,.8.319H138.5a3.346,3.346,0,0,1,1.755.478,3.584,3.584,0,0,1,1.262,1.262,3.349,3.349,0,0,1,.464,1.74V-3.48a3.426,3.426,0,0,1-.464,1.755,3.433,3.433,0,0,1-1.262,1.261A3.426,3.426,0,0,1,138.5,0Z" transform="translate(65.16 45.74)" fill="#fff"/>
    </g>
  </g>
</svg>
