<svg xmlns="http://www.w3.org/2000/svg" width="295" height="295" viewBox="0 0 295 295">
  <g id="Oracle_icon" transform="translate(43.96 43.5)" opacity="0.5" style="mix-blend-mode: luminosity;isolation: isolate">
    <rect id="Rectangle_523" data-name="Rectangle 523" width="295" height="295" transform="translate(-43.96 -43.5)" fill="#fff" opacity="0"/>
    <g id="oracle-cloud-infrastructure-logo-01" transform="translate(-43.96 -43.5)">
      <path id="Path_1018" data-name="Path 1018" d="M104.518,307.695h14.923l-7.883-12.724L97.086,317.953H90.472l17.62-27.581a4.2,4.2,0,0,1,6.856-.051l17.679,27.632h-6.6l-3.1-5.139H107.815l-3.3-5.12M173,312.814V288.859h-5.606V315.17a2.693,2.693,0,0,0,.827,1.929,2.83,2.83,0,0,0,2.038.855h25.48l3.344-5.139H173m-92.551-4.281a9.838,9.838,0,1,0,0-19.676l-24.48,0v29.094h5.594V294H80.073a4.7,4.7,0,0,1,0,9.408H64.295l16.711,14.551h8.118L77.9,308.553h2.544m-58.9,9.408H38.458a14.547,14.547,0,0,0,0-29.094H21.547a14.547,14.547,0,0,0,0,29.094m16.527-5.12H21.92a9.408,9.408,0,0,1,0-18.816H38.074a9.408,9.408,0,0,1,0,18.816h0m106.232,5.12h17.248l3.269-5.12H144.69a9.408,9.408,0,0,1-.024-18.816H161.1l3.308-5.143H144.31a14.547,14.547,0,0,0-.055,29.094h.055m68.416-5.12a9.408,9.408,0,0,1-9.063-6.868h23.912l3.3-5.127h-27.2a9.408,9.408,0,0,1,9.063-6.852h16.417l3.281-5.143h-20.07a14.547,14.547,0,0,0,0,29.094h17.248l3.281-5.12H212.726" transform="translate(-4.256 -175.026)" fill="#f90101"/>
      <path id="Path_1019" data-name="Path 1019" d="M28.108,420v2.564a11.7,11.7,0,0,1-3.03,1.105,15.813,15.813,0,0,1-3.528.392q-5.19,0-8.024-3.187t-2.834-9.083a13.841,13.841,0,0,1,1.317-6.3,9.541,9.541,0,0,1,3.795-4.053,11.509,11.509,0,0,1,5.88-1.423,12.382,12.382,0,0,1,3.058.392,7.9,7.9,0,0,1,2.548,1.055v2.564a19.208,19.208,0,0,0-2.916-1.058,10.122,10.122,0,0,0-2.5-.321,7.637,7.637,0,0,0-5.99,2.387q-2.144,2.387-2.148,6.778,0,4.645,2.132,7.142a7.478,7.478,0,0,0,6.005,2.5A16.005,16.005,0,0,0,28.108,420" transform="translate(-6.497 -242.63)" fill="#010101"/>
      <path id="Path_1020" data-name="Path 1020" d="M62.266,423.127V401.308L60.6,400.254V399.07h4.551v24.057Z" transform="translate(-36.845 -242.055)" fill="#010101"/>
      <path id="Path_1021" data-name="Path 1021" d="M89.651,434.308a7.514,7.514,0,0,1-5.88-2.325,9.135,9.135,0,0,1-2.082-6.39,9.228,9.228,0,0,1,2.082-6.409,7.5,7.5,0,0,1,5.88-2.3,7.486,7.486,0,0,1,5.88,2.3,9.335,9.335,0,0,1,2.085,6.409,9.214,9.214,0,0,1-2.085,6.39,7.509,7.509,0,0,1-5.88,2.325m0-2.352a4.5,4.5,0,0,0,3.751-1.619,9.344,9.344,0,0,0,0-9.447,4.578,4.578,0,0,0-3.751-1.639,4.458,4.458,0,0,0-3.716,1.619,9.369,9.369,0,0,0,0,9.447,4.452,4.452,0,0,0,3.716,1.619" transform="translate(-49.667 -252.872)" fill="#010101"/>
      <path id="Path_1022" data-name="Path 1022" d="M131.54,428.125V417.78h2.881v10.251a5.155,5.155,0,0,0,.929,3.3,3.293,3.293,0,0,0,2.744,1.152,4.516,4.516,0,0,0,2.834-1.043,6.358,6.358,0,0,0,2-2.768V417.78h2.885V434.5h-1.96l-.514-2.854a7.033,7.033,0,0,1-5.958,3.207,5.446,5.446,0,0,1-4.312-1.729,7.321,7.321,0,0,1-1.521-5" transform="translate(-79.792 -253.419)" fill="#010101"/>
      <path id="Path_1023" data-name="Path 1023" d="M190.665,423.127l-.478-2.689a6.762,6.762,0,0,1-5.668,3.042,6.3,6.3,0,0,1-5.174-2.3,11.9,11.9,0,0,1,0-12.818,6.357,6.357,0,0,1,5.237-2.305,7.209,7.209,0,0,1,2.744.545,7.621,7.621,0,0,1,2.407,1.537V399.07h2.881v24.057Zm-10.243-8.361a8.072,8.072,0,0,0,1.176,4.7,3.881,3.881,0,0,0,3.363,1.666,5,5,0,0,0,2.771-.815,5.8,5.8,0,0,0,2-2.227v-7.448a5.95,5.95,0,0,0-4.645-2.278,4.049,4.049,0,0,0-3.461,1.639,7.863,7.863,0,0,0-1.219,4.739" transform="translate(-107.652 -242.054)" fill="#010101"/>
      <rect id="Rectangle_534" data-name="Rectangle 534" width="2.979" height="23.289" transform="translate(97.9 157.784)" fill="#010101"/>
      <path id="Path_1024" data-name="Path 1024" d="M269.24,433.978V417.256h1.96l.514,2.85a7.408,7.408,0,0,1,2.6-2.352,7.1,7.1,0,0,1,3.461-.835,5.613,5.613,0,0,1,4.422,1.729,7.187,7.187,0,0,1,1.529,4.967v10.349h-2.881V423.724q0-4.351-3.783-4.355a4.881,4.881,0,0,0-2.932.976,5.991,5.991,0,0,0-2,2.646v10.976Z" transform="translate(-163.32 -252.896)" fill="#010101"/>
      <path id="Path_1025" data-name="Path 1025" d="M315.931,422.774V408.419H313.05v-1.47l2.881-.96v-1.862q0-5.641,5.382-5.637a6.7,6.7,0,0,1,1.25.129v2.242a6.419,6.419,0,0,0-1.027-.063,2.518,2.518,0,0,0-2.1.784,4.076,4.076,0,0,0-.627,2.513v1.96h3.877v2.352h-3.877v14.355Z" transform="translate(-189.903 -241.703)" fill="#010101"/>
      <path id="Path_1026" data-name="Path 1026" d="M346.55,434.448V417.725h1.96l.576,3.136a5.072,5.072,0,0,1,4.677-3.171,5.959,5.959,0,0,1,1.121.094v2.532h-.737a4.539,4.539,0,0,0-3.042,1.027,5.276,5.276,0,0,0-1.666,2.975v10.125Z" transform="translate(-210.227 -253.364)" fill="#010101"/>
      <path id="Path_1027" data-name="Path 1027" d="M383.753,433.937l-.478-2.689a6.4,6.4,0,0,1-5.578,3.042,5.679,5.679,0,0,1-4.049-1.427,5.5,5.5,0,0,1,.286-7.879,7.842,7.842,0,0,1,5.045-1.458h3.846v-1.058a3.384,3.384,0,0,0-.784-2.532,3.84,3.84,0,0,0-2.673-.737,13.451,13.451,0,0,0-2.6.274,22.419,22.419,0,0,0-3.1.882V418a12.788,12.788,0,0,1,2.787-.847,15.473,15.473,0,0,1,2.944-.306q6.315,0,6.311,5.606v11.47Zm-5.7-1.96a4.9,4.9,0,0,0,2.744-.851,6.135,6.135,0,0,0,2.05-2.325v-3.171h-3.587a5.379,5.379,0,0,0-3.222.784A2.827,2.827,0,0,0,375,428.837a3.167,3.167,0,0,0,.815,2.289,2.952,2.952,0,0,0,2.227.851" transform="translate(-225.727 -252.854)" fill="#010101"/>
      <path id="Path_1028" data-name="Path 1028" d="M415.907,433.1v-2.434a16.782,16.782,0,0,0,2.744.929,11.494,11.494,0,0,0,2.615.29q4.163,0,4.163-2.5a2.019,2.019,0,0,0-.608-1.568,5.371,5.371,0,0,0-2.148-.976l-2.626-.706a7.291,7.291,0,0,1-3.363-1.744,3.92,3.92,0,0,1-1.058-2.838,4.057,4.057,0,0,1,1.713-3.442,7.636,7.636,0,0,1,4.63-1.266,15.145,15.145,0,0,1,2.916.259,9.8,9.8,0,0,1,2.274.7v2.434a13.246,13.246,0,0,0-5.006-.98q-3.638,0-3.638,2.117a1.854,1.854,0,0,0,.549,1.411,4.772,4.772,0,0,0,1.96.913l2.658.706a7.468,7.468,0,0,1,3.528,1.776,4.249,4.249,0,0,1,1.094,3.062,4.34,4.34,0,0,1-1.831,3.685,8.414,8.414,0,0,1-5.061,1.345,14.111,14.111,0,0,1-3.011-.321,9.581,9.581,0,0,1-2.5-.866" transform="translate(-252.119 -252.847)" fill="#010101"/>
      <path id="Path_1029" data-name="Path 1029" d="M454.455,422.248v-9.263H451.57v-1.47l2.885-.96L455.608,406h1.729v4.614h3.622v2.352h-3.622v9.228q0,2.744,2.372,2.744a6.056,6.056,0,0,0,.751-.047c.244-.031.476-.059.691-.079v2.5a6.531,6.531,0,0,1-.917.125q-.459.035-.976.035a4.686,4.686,0,0,1-3.634-1.282,5.78,5.78,0,0,1-1.176-3.971" transform="translate(-273.932 -246.264)" fill="#010101"/>
      <path id="Path_1030" data-name="Path 1030" d="M485.16,434.448V417.725h1.96l.58,3.136a5.072,5.072,0,0,1,4.677-3.171,5.959,5.959,0,0,1,1.121.094v2.532h-.737a4.555,4.555,0,0,0-3.046,1.027,5.272,5.272,0,0,0-1.662,2.975v10.125Z" transform="translate(-294.311 -253.364)" fill="#010101"/>
      <path id="Path_1031" data-name="Path 1031" d="M515,428.125V417.78h2.881v10.251a5.155,5.155,0,0,0,.929,3.3,3.293,3.293,0,0,0,2.724,1.152,4.516,4.516,0,0,0,2.834-1.043,6.359,6.359,0,0,0,2-2.768V417.78h2.881V434.5h-1.96l-.514-2.854a7.033,7.033,0,0,1-5.958,3.207,5.446,5.446,0,0,1-4.312-1.729,7.28,7.28,0,0,1-1.509-5" transform="translate(-312.398 -253.419)" fill="#010101"/>
      <path id="Path_1032" data-name="Path 1032" d="M573.784,430.706v2.372a9.752,9.752,0,0,1-5.029,1.176A7.329,7.329,0,0,1,562.91,432q-1.964-2.258-1.96-6.664a8.87,8.87,0,0,1,2.081-6.3,7.655,7.655,0,0,1,5.88-2.227,9.307,9.307,0,0,1,4.391,1.058v2.352a8.84,8.84,0,0,0-3.944-1.055q-5.488,0-5.488,6.151a7.905,7.905,0,0,0,1.266,4.931,4.758,4.758,0,0,0,3.987,1.6,8.954,8.954,0,0,0,2.211-.286,14.507,14.507,0,0,0,2.434-.9" transform="translate(-340.276 -252.829)" fill="#010101"/>
      <path id="Path_1033" data-name="Path 1033" d="M601.231,422.248v-9.263H598.35v-1.47l2.881-.96L602.388,406h1.729v4.614h3.618v2.352h-3.618v9.228q0,2.744,2.372,2.744a6.056,6.056,0,0,0,.751-.047c.244-.031.476-.059.687-.079v2.5a6.4,6.4,0,0,1-.913.125c-.306.023-.635.035-.976.035a4.684,4.684,0,0,1-3.634-1.282,5.769,5.769,0,0,1-1.176-3.971" transform="translate(-362.972 -246.264)" fill="#010101"/>
      <path id="Path_1034" data-name="Path 1034" d="M631.53,428.125V417.78h2.881v10.251a5.155,5.155,0,0,0,.929,3.3,3.293,3.293,0,0,0,2.744,1.152,4.516,4.516,0,0,0,2.834-1.043,6.359,6.359,0,0,0,2-2.768V417.78H645.8V434.5h-1.96l-.514-2.854a7.032,7.032,0,0,1-5.958,3.207,5.446,5.446,0,0,1-4.312-1.729,7.321,7.321,0,0,1-1.521-5" transform="translate(-382.97 -253.419)" fill="#010101"/>
      <path id="Path_1035" data-name="Path 1035" d="M680.15,434.448V417.725h1.96l.576,3.136a5.072,5.072,0,0,1,4.677-3.171,5.96,5.96,0,0,1,1.121.094v2.532h-.737a4.539,4.539,0,0,0-3.042,1.027,5.275,5.275,0,0,0-1.666,2.975v10.125Z" transform="translate(-412.531 -253.364)" fill="#010101"/>
      <path id="Path_1036" data-name="Path 1036" d="M719.781,433.121a7.758,7.758,0,0,1-2.387.866,15.622,15.622,0,0,1-3.25.321,7.676,7.676,0,0,1-6.009-2.258q-2.035-2.258-2.034-6.617,0-4.2,1.96-6.374a7.107,7.107,0,0,1,5.559-2.18q6.977,0,6.981,7.722v1.854H709a6.191,6.191,0,0,0,1.505,4.12,5.369,5.369,0,0,0,3.92,1.3,12.442,12.442,0,0,0,2.72-.29,13.52,13.52,0,0,0,2.634-.9ZM713.6,419.252a4.254,4.254,0,0,0-3.285,1.262,5.694,5.694,0,0,0-1.3,3.673h8.777a5.854,5.854,0,0,0-.976-3.783,3.988,3.988,0,0,0-3.218-1.152" transform="translate(-428.309 -252.872)" fill="#010101"/>
      <rect id="Rectangle_535" data-name="Rectangle 535" width="295" height="295" fill="none"/>
    </g>
  </g>
</svg>
